G04 Bottom Solder Mask*
%FSLAX23Y23*%
%MOIN*%
G01*
%ADD10C,0.010*%
%ADD11C,0.015*%
%ADD12C,0.035*%
%ADD13C,0.065*%
%ADD14C,0.150*%
D10*
D11*
D12*
X2638Y2475D03*
X2688Y2525D03*
X2450Y2350D03*
X2650Y2725D03*
X2650Y2675D03*
X2750Y2525D03*
X2462Y2612D03*
X1600Y1350D03*
X1712Y1488D03*
X1762Y1550D03*
X1638Y1550D03*
X2362Y2500D03*
X1838Y1550D03*
X1888Y1550D03*
X1912Y1612D03*
X2037Y1500D03*
D13*
X1700Y2550D03*
X1700Y2450D03*
X1800Y2450D03*
X1800Y2550D03*
X2000Y2200D03*
X2100Y2200D03*
X2200Y2200D03*
X2300Y2200D03*
X2400Y2200D03*
X2500Y2200D03*
X2600Y2200D03*
X2700Y2200D03*
X2000Y2800D03*
X2100Y2800D03*
X2200Y2800D03*
X2400Y2800D03*
X2500Y2800D03*
X2600Y2800D03*
X2700Y2800D03*
X2100Y2451D03*
X1900Y2447D03*
X1900Y2547D03*
X2100Y2551D03*
X2800Y2800D03*
X2800Y2200D03*
X1900Y2650D03*
X2300Y2650D03*
X1899Y2350D03*
X2301Y2350D03*
X2200Y2451D03*
X2200Y2551D03*
X2400Y2551D03*
X2400Y2451D03*
X1750Y2800D03*
X1850Y2800D03*
X2700Y1450D03*
X2700Y1550D03*
X2600Y1550D03*
X2600Y1450D03*
X2650Y1800D03*
X2550Y1800D03*
X2400Y1800D03*
X2300Y1800D03*
X2200Y1800D03*
X2100Y1800D03*
X2000Y1800D03*
X1800Y1800D03*
X1700Y1800D03*
X1600Y1800D03*
X1600Y1200D03*
X1700Y1200D03*
X1800Y1200D03*
X1900Y1200D03*
X2000Y1200D03*
X2100Y1200D03*
X2200Y1200D03*
X2300Y1200D03*
X2400Y1200D03*
X2300Y1450D03*
X2500Y1450D03*
X2500Y1550D03*
X2300Y1550D03*
X2000Y1450D03*
X2200Y1450D03*
X2200Y1550D03*
X2000Y1550D03*
X2100Y1350D03*
X2500Y1350D03*
X2500Y1650D03*
X2100Y1650D03*
D14*
X1600Y2250D03*
X1600Y2750D03*
X2800Y1750D03*
X2800Y1250D03*
M02*
