G04 Top Silkscreen*
%FSLAX23Y23*%
%MOIN*%
G01*
%ADD10C,0.010*%
%ADD11C,0.015*%
%ADD12C,0.035*%
%ADD13C,0.065*%
%ADD14C,0.150*%
D10*
X2679Y2318D02*
X2685Y2318D01*
X2692Y2319D01*
X2700Y2319D01*
X2705Y2319D01*
X2712Y2319D01*
X2717Y2319D01*
X2724Y2319D01*
X2729Y2319D01*
X2731Y2314D01*
X2728Y2308D01*
X2725Y2303D01*
X2723Y2297D01*
X2719Y2291D01*
X2716Y2285D01*
X2713Y2279D01*
X2710Y2274D01*
X2706Y2268D01*
X2702Y2264D01*
X2699Y2259D01*
X2696Y2255D01*
X2693Y2250D01*
X2773Y2287D02*
X2779Y2287D01*
X2784Y2288D01*
X2790Y2288D01*
X2796Y2288D01*
X2802Y2288D01*
X2807Y2288D01*
X2813Y2288D01*
X2818Y2287D01*
X2823Y2287D01*
X2829Y2287D01*
X2834Y2286D01*
X2789Y2271D02*
X2795Y2271D01*
X2801Y2271D01*
X2806Y2271D01*
X2812Y2271D01*
X2817Y2271D01*
X2800Y2254D02*
X2806Y2254D01*
X2802Y2327D02*
X2802Y2322D01*
X2802Y2316D01*
X2802Y2310D01*
X2802Y2305D01*
X2803Y2300D01*
X2804Y2295D01*
X2804Y2290D01*
X2487Y2317D02*
X2487Y2311D01*
X2486Y2306D01*
X2486Y2299D01*
X2486Y2294D01*
X2486Y2288D01*
X2492Y2292D01*
X2497Y2293D01*
X2503Y2294D01*
X2508Y2293D01*
X2513Y2291D01*
X2517Y2287D01*
X2521Y2283D01*
X2523Y2278D01*
X2524Y2273D01*
X2523Y2268D01*
X2520Y2263D01*
X2517Y2258D01*
X2512Y2256D01*
X2506Y2255D01*
X2500Y2255D01*
X2494Y2256D01*
X2489Y2258D01*
X2484Y2261D01*
X2487Y2318D02*
X2493Y2320D01*
X2498Y2320D01*
X2504Y2321D01*
X2509Y2321D01*
X2515Y2320D01*
X2520Y2319D01*
X2525Y2318D01*
X2084Y1304D02*
X2089Y1304D01*
X2094Y1305D01*
X2101Y1305D01*
X2108Y1305D01*
X2113Y1305D01*
X2119Y1304D01*
X2078Y1750D02*
X2083Y1750D01*
X2089Y1750D01*
X2095Y1750D01*
X2102Y1749D01*
X2107Y1748D01*
X2112Y1748D01*
X2118Y1748D01*
X2123Y1748D01*
X2286Y1307D02*
X2291Y1307D01*
X2297Y1307D01*
X2303Y1307D01*
X2309Y1307D01*
X2315Y1307D01*
X2321Y1307D01*
X2326Y1306D01*
X2331Y1306D01*
X2329Y1300D01*
X2327Y1296D01*
X2324Y1290D01*
X2322Y1285D01*
X2319Y1279D01*
X2317Y1274D01*
X2314Y1269D01*
X2311Y1264D01*
X2308Y1260D01*
X2305Y1255D01*
X2303Y1251D01*
X2299Y1247D01*
X2298Y1242D01*
X1600Y1745D02*
X1599Y1740D01*
X1599Y1734D01*
X1599Y1729D01*
X1599Y1723D01*
X1599Y1717D01*
X1599Y1711D01*
X1599Y1706D01*
X1599Y1700D01*
X1599Y1695D01*
X1599Y1690D01*
X1599Y1684D01*
X1576Y1720D02*
X1582Y1719D01*
X1587Y1719D01*
X1594Y1719D01*
X1600Y1718D01*
X1608Y1718D01*
X1615Y1718D01*
X1623Y1718D01*
X1629Y1718D01*
X1682Y1750D02*
X1682Y1745D01*
X1683Y1739D01*
X1683Y1733D01*
X1684Y1728D01*
X1684Y1723D01*
X1685Y1718D01*
X1685Y1713D01*
X1688Y1717D01*
X1693Y1720D01*
X1700Y1721D01*
X1706Y1721D01*
X1711Y1719D01*
X1716Y1715D01*
X1719Y1710D01*
X1720Y1704D01*
X1720Y1699D01*
X1718Y1694D01*
X1715Y1690D01*
X1711Y1685D01*
X1707Y1682D01*
X1701Y1679D01*
X1696Y1677D01*
X1690Y1677D01*
X1685Y1677D01*
X1680Y1680D01*
X1677Y1684D01*
X1684Y1751D02*
X1689Y1750D01*
X1695Y1748D01*
X1701Y1748D01*
X1706Y1747D01*
X1712Y1747D01*
X1717Y1747D01*
X1722Y1747D01*
X1979Y1744D02*
X1978Y1739D01*
X1978Y1733D01*
X1978Y1727D01*
X1978Y1720D01*
X1979Y1714D01*
X1980Y1709D01*
X1981Y1704D01*
X1981Y1699D01*
X1981Y1693D01*
X1980Y1687D01*
X1980Y1682D01*
X1980Y1676D01*
X1979Y1744D02*
X1984Y1744D01*
X1990Y1744D01*
X1996Y1743D01*
X2002Y1742D01*
X2009Y1742D01*
X2015Y1742D01*
X2020Y1742D01*
X2025Y1742D01*
X1984Y1711D02*
X1990Y1711D01*
X1995Y1711D01*
X2001Y1711D01*
X2006Y1712D01*
X2172Y1748D02*
X2172Y1742D01*
X2172Y1736D01*
X2172Y1730D01*
X2172Y1724D01*
X2173Y1719D01*
X2173Y1714D01*
X2173Y1708D01*
X2173Y1702D01*
X2173Y1696D01*
X2173Y1691D01*
X2174Y1685D01*
X2174Y1680D01*
X2174Y1675D01*
X2178Y1747D02*
X2184Y1748D01*
X2190Y1748D01*
X2197Y1748D01*
X2203Y1748D01*
X2208Y1748D01*
X2214Y1747D01*
X2218Y1745D01*
X2222Y1740D01*
X2223Y1735D01*
X2221Y1731D01*
X2217Y1727D01*
X2211Y1724D01*
X2206Y1723D01*
X2201Y1721D01*
X2196Y1720D01*
X2190Y1719D01*
X2185Y1718D01*
X2180Y1718D01*
X2174Y1718D01*
X2193Y1719D02*
X2197Y1715D01*
X2200Y1711D01*
X2204Y1707D01*
X2208Y1703D01*
X2211Y1698D01*
X2214Y1694D01*
X2217Y1690D01*
X2219Y1685D01*
X2222Y1681D01*
X2377Y1742D02*
X2376Y1737D01*
X2376Y1730D01*
X2376Y1723D01*
X2376Y1717D01*
X2377Y1712D01*
X2377Y1705D01*
X2377Y1699D01*
X2376Y1693D01*
X2375Y1687D01*
X2375Y1682D01*
X2375Y1677D01*
X2377Y1743D02*
X2382Y1743D01*
X2388Y1743D01*
X2393Y1742D01*
X2398Y1742D01*
X2405Y1742D01*
X2410Y1741D01*
X2415Y1741D01*
X2419Y1738D01*
X2421Y1733D01*
X2422Y1728D01*
X2419Y1723D01*
X2415Y1719D01*
X2411Y1716D01*
X2406Y1714D01*
X2400Y1712D01*
X2394Y1711D01*
X2389Y1711D01*
X2384Y1710D01*
X2378Y1710D01*
X2398Y1710D02*
X2402Y1707D01*
X2405Y1702D01*
X2409Y1698D01*
X2411Y1694D01*
X2414Y1689D01*
X2416Y1684D01*
X2417Y1678D01*
X1785Y1309D02*
X1789Y1313D01*
X1794Y1316D01*
X1799Y1318D01*
X1805Y1317D01*
X1809Y1315D01*
X1813Y1311D01*
X1816Y1306D01*
X1817Y1301D01*
X1817Y1295D01*
X1815Y1290D01*
X1812Y1284D01*
X1808Y1280D01*
X1803Y1276D01*
X1799Y1273D01*
X1795Y1269D01*
X1791Y1265D01*
X1788Y1261D01*
X1784Y1257D01*
X1788Y1255D01*
X1794Y1255D01*
X1800Y1256D01*
X1805Y1256D01*
X1811Y1256D01*
X1816Y1256D01*
X1821Y1255D01*
X1695Y1315D02*
X1695Y1308D01*
X1695Y1302D01*
X1695Y1296D01*
X1695Y1289D01*
X1695Y1282D01*
X1695Y1276D01*
X1694Y1270D01*
X1694Y1264D01*
X1693Y1259D01*
X1694Y1254D01*
X1695Y1249D01*
X2100Y1748D02*
X2099Y1743D01*
X2098Y1738D01*
X2098Y1732D01*
X2098Y1726D01*
X2098Y1720D01*
X2099Y1715D01*
X2099Y1709D01*
X2101Y1704D01*
X2101Y1699D01*
X2102Y1693D01*
X2102Y1688D01*
X2102Y2314D02*
X2101Y2309D01*
X2101Y2302D01*
X2101Y2295D01*
X2101Y2289D01*
X2101Y2283D01*
X2101Y2277D01*
X2101Y2271D01*
X2101Y2266D01*
X2101Y2261D01*
X2101Y2255D01*
X2101Y2250D01*
X2080Y2251D02*
X2085Y2251D01*
X2091Y2251D01*
X2097Y2251D01*
X2103Y2250D01*
X2108Y2250D01*
X2113Y2249D01*
X2118Y2248D01*
X2099Y2316D02*
X2096Y2312D01*
X2092Y2308D01*
X2089Y2305D01*
X2085Y2301D01*
X2185Y2307D02*
X2189Y2310D01*
X2193Y2313D01*
X2199Y2315D01*
X2204Y2315D01*
X2209Y2314D01*
X2214Y2313D01*
X2219Y2310D01*
X2221Y2305D01*
X2222Y2300D01*
X2221Y2295D01*
X2217Y2291D01*
X2214Y2286D01*
X2210Y2282D01*
X2207Y2278D01*
X2204Y2274D01*
X2200Y2269D01*
X2197Y2266D01*
X2193Y2262D01*
X2189Y2258D01*
X2185Y2254D01*
X2182Y2250D01*
X2186Y2248D01*
X2192Y2248D01*
X2197Y2248D01*
X2203Y2248D01*
X2208Y2248D01*
X2214Y2248D01*
X2219Y2247D01*
X2386Y2315D02*
X2386Y2310D01*
X2386Y2303D01*
X2386Y2298D01*
X2386Y2292D01*
X2386Y2287D01*
X2390Y2284D01*
X2395Y2284D01*
X2401Y2284D01*
X2406Y2284D01*
X2412Y2283D01*
X2418Y2283D01*
X2423Y2316D02*
X2422Y2310D01*
X2422Y2304D01*
X2422Y2299D01*
X2422Y2293D01*
X2422Y2287D01*
X2421Y2282D01*
X2421Y2275D01*
X2420Y2269D01*
X2420Y2264D01*
X2420Y2258D01*
X2419Y2252D01*
X2419Y2247D01*
X2786Y2749D02*
X2784Y2744D01*
X2784Y2738D01*
X2784Y2731D01*
X2785Y2724D01*
X2785Y2718D01*
X2785Y2713D01*
X2785Y2707D01*
X2785Y2702D01*
X2785Y2697D01*
X2785Y2691D01*
X2786Y2686D01*
X2788Y2748D02*
X2794Y2750D01*
X2799Y2751D01*
X2805Y2751D01*
X2810Y2751D01*
X2815Y2748D01*
X2819Y2745D01*
X2823Y2742D01*
X2826Y2737D01*
X2827Y2732D01*
X2825Y2727D01*
X2820Y2724D01*
X2814Y2722D01*
X2809Y2721D01*
X2803Y2720D01*
X2798Y2720D01*
X2792Y2721D01*
X2787Y2723D01*
X2805Y2718D02*
X2808Y2713D01*
X2811Y2709D01*
X2813Y2704D01*
X2815Y2699D01*
X2817Y2694D01*
X2819Y2689D01*
X2821Y2684D01*
X2478Y2749D02*
X2484Y2748D01*
X2490Y2747D01*
X2497Y2747D01*
X2502Y2747D01*
X2508Y2747D01*
X2513Y2748D01*
X2519Y2746D01*
X2496Y2746D02*
X2497Y2740D01*
X2497Y2735D01*
X2497Y2729D01*
X2497Y2724D01*
X2498Y2719D01*
X2498Y2713D01*
X2497Y2708D01*
X2497Y2703D01*
X2498Y2697D01*
X2498Y2692D01*
X2498Y2686D01*
X2382Y2751D02*
X2382Y2745D01*
X2382Y2739D01*
X2382Y2732D01*
X2383Y2725D01*
X2383Y2719D01*
X2383Y2712D01*
X2382Y2707D01*
X2382Y2702D01*
X2382Y2697D01*
X2382Y2691D01*
X2383Y2686D01*
X2383Y2681D01*
X2383Y2750D02*
X2389Y2750D01*
X2396Y2750D01*
X2402Y2749D01*
X2407Y2749D01*
X2413Y2749D01*
X2418Y2749D01*
X2387Y2718D02*
X2392Y2718D01*
X2398Y2718D01*
X2404Y2718D01*
X2081Y2749D02*
X2081Y2743D01*
X2082Y2737D01*
X2082Y2732D01*
X2082Y2727D01*
X2082Y2721D01*
X2082Y2716D01*
X2087Y2718D01*
X2092Y2721D01*
X2097Y2721D01*
X2103Y2720D01*
X2107Y2718D01*
X2112Y2715D01*
X2115Y2710D01*
X2116Y2704D01*
X2115Y2699D01*
X2112Y2694D01*
X2109Y2691D01*
X2104Y2687D01*
X2099Y2684D01*
X2094Y2684D01*
X2089Y2687D01*
X2085Y2690D01*
X2081Y2749D02*
X2086Y2748D01*
X2092Y2747D01*
X2097Y2745D01*
X2103Y2744D01*
X2109Y2744D01*
X2114Y2743D01*
X2196Y2748D02*
X2193Y2744D01*
X2192Y2738D01*
X2190Y2733D01*
X2187Y2728D01*
X2185Y2722D01*
X2182Y2717D01*
X2181Y2712D01*
X2179Y2706D01*
X2178Y2701D01*
X2178Y2696D01*
X2180Y2691D01*
X2184Y2687D01*
X2188Y2684D01*
X2193Y2683D01*
X2198Y2685D01*
X2202Y2689D01*
X2204Y2693D01*
X2206Y2699D01*
X2207Y2704D01*
X2206Y2710D01*
X2204Y2714D01*
X2200Y2717D01*
X2195Y2718D01*
X2190Y2718D01*
X2185Y2715D01*
X2181Y2712D01*
X1999Y2743D02*
X1999Y2737D01*
X1999Y2731D01*
X2000Y2726D01*
X2000Y2720D01*
X2000Y2715D01*
X2001Y2708D01*
X2001Y2703D01*
X2000Y2698D01*
X1978Y2721D02*
X1983Y2721D01*
X1989Y2722D01*
X1995Y2722D01*
X2000Y2722D01*
X2006Y2722D01*
X2012Y2722D01*
X2017Y2722D01*
X2022Y2722D01*
X2398Y1250D02*
X2403Y1250D01*
X2408Y1250D01*
X2383Y1269D02*
X2389Y1269D01*
X2395Y1269D01*
X2400Y1269D01*
X2405Y1268D01*
X2411Y1268D01*
X2416Y1267D01*
X2421Y1266D01*
X2426Y1266D01*
X2371Y1289D02*
X2376Y1288D01*
X2382Y1288D01*
X2387Y1288D01*
X2392Y1287D01*
X2398Y1286D01*
X2403Y1285D01*
X2408Y1284D01*
X2413Y1284D01*
X2418Y1283D01*
X2424Y1282D01*
X2430Y1282D01*
X2435Y1282D01*
X2440Y1282D01*
X2446Y1282D01*
X2408Y1289D02*
X2408Y1294D01*
X2408Y1301D01*
X2407Y1306D01*
X2407Y1312D01*
X2407Y1318D01*
X2407Y1324D01*
X2408Y1329D01*
X2408Y1334D01*
X2576Y2751D02*
X2576Y2746D01*
X2576Y2741D01*
X2576Y2735D01*
X2575Y2729D01*
X2575Y2724D01*
X2575Y2719D01*
X2575Y2714D01*
X2575Y2708D01*
X2575Y2703D01*
X2574Y2698D01*
X2574Y2693D01*
X2575Y2688D01*
X2580Y2751D02*
X2585Y2752D01*
X2590Y2753D01*
X2595Y2753D01*
X2600Y2753D01*
X2605Y2752D01*
X2610Y2749D01*
X2613Y2745D01*
X2615Y2739D01*
X2614Y2734D01*
X2610Y2730D01*
X2605Y2726D01*
X2599Y2725D01*
X2594Y2724D01*
X2589Y2723D01*
X2583Y2723D01*
X2578Y2724D01*
X2596Y2720D02*
X2601Y2717D01*
X2605Y2713D01*
X2609Y2708D01*
X2611Y2704D01*
X2614Y2699D01*
X2616Y2694D01*
X2617Y2688D01*
X2271Y1743D02*
X2272Y1738D01*
X2273Y1732D01*
X2275Y1727D01*
X2276Y1722D01*
X2277Y1717D01*
X2278Y1711D01*
X2279Y1706D01*
X2279Y1701D01*
X2279Y1696D01*
X2280Y1691D01*
X2281Y1686D01*
X2282Y1681D01*
X2287Y1683D01*
X2288Y1688D01*
X2291Y1693D01*
X2293Y1699D01*
X2296Y1704D01*
X2298Y1709D01*
X2300Y1714D01*
X2302Y1719D01*
X2305Y1715D01*
X2306Y1710D01*
X2308Y1705D01*
X2310Y1700D01*
X2311Y1695D01*
X2313Y1690D01*
X2315Y1685D01*
X2317Y1680D01*
X2319Y1686D01*
X2321Y1691D01*
X2322Y1697D01*
X2323Y1702D01*
X2324Y1707D01*
X2326Y1712D01*
X2327Y1717D01*
X2329Y1723D01*
X2330Y1728D01*
X2332Y1733D01*
X2334Y1738D01*
X2335Y1743D01*
X2219Y1309D02*
X2214Y1310D01*
X2209Y1310D01*
X2204Y1309D01*
X2199Y1307D01*
X2195Y1304D01*
X2192Y1300D01*
X2190Y1295D01*
X2188Y1290D01*
X2187Y1284D01*
X2187Y1279D01*
X2187Y1273D01*
X2188Y1268D01*
X2189Y1263D01*
X2190Y1257D01*
X2192Y1253D01*
X2195Y1249D01*
X2200Y1246D01*
X2205Y1245D01*
X2210Y1245D01*
X2215Y1247D01*
X2219Y1250D01*
X2222Y1255D01*
X2222Y1260D01*
X2222Y1265D01*
X2220Y1270D01*
X2216Y1273D01*
X2211Y1274D01*
X2206Y1274D01*
X2201Y1272D01*
X2196Y1269D01*
X2192Y1266D01*
X2083Y1303D02*
X2083Y1298D01*
X2083Y1292D01*
X2084Y1287D01*
X2084Y1282D01*
X2084Y1277D01*
X2089Y1276D01*
X2095Y1278D01*
X2100Y1279D01*
X2105Y1279D01*
X2110Y1278D01*
X2114Y1275D01*
X2117Y1270D01*
X2118Y1265D01*
X2119Y1260D01*
X2118Y1255D01*
X2117Y1250D01*
X2116Y1245D01*
X2113Y1241D01*
X2108Y1238D01*
X2103Y1238D01*
X2098Y1239D01*
X2093Y1240D01*
X2089Y1244D01*
X2086Y1248D01*
X1990Y1315D02*
X1990Y1310D01*
X1990Y1304D01*
X1990Y1299D01*
X1990Y1294D01*
X1990Y1288D01*
X1990Y1283D01*
X1993Y1279D01*
X1999Y1279D01*
X2004Y1279D01*
X2009Y1279D01*
X2014Y1279D01*
X2019Y1280D01*
X2024Y1279D01*
X2019Y1315D02*
X2018Y1309D01*
X2018Y1303D01*
X2018Y1298D01*
X2019Y1292D01*
X2019Y1287D01*
X2019Y1282D01*
X2018Y1276D01*
X2018Y1271D01*
X2018Y1266D01*
X2018Y1261D01*
X2016Y1256D01*
X2015Y1251D01*
X2015Y1246D01*
X1599Y1318D02*
X1594Y1318D01*
X1589Y1317D01*
X1584Y1315D01*
X1580Y1312D01*
X1576Y1308D01*
X1574Y1303D01*
X1574Y1297D01*
X1574Y1292D01*
X1574Y1287D01*
X1575Y1281D01*
X1575Y1276D01*
X1576Y1271D01*
X1578Y1266D01*
X1580Y1261D01*
X1584Y1257D01*
X1587Y1253D01*
X1591Y1250D01*
X1596Y1248D01*
X1601Y1247D01*
X1607Y1247D01*
X1611Y1249D01*
X1615Y1253D01*
X1619Y1257D01*
X1622Y1261D01*
X1623Y1266D01*
X1625Y1271D01*
X1626Y1276D01*
X1627Y1281D01*
X1627Y1287D01*
X1628Y1292D01*
X1626Y1297D01*
X1624Y1302D01*
X1621Y1306D01*
X1618Y1311D01*
X1614Y1313D01*
X1609Y1316D01*
X1604Y1318D01*
X1599Y1320D01*
X1886Y1319D02*
X1891Y1322D01*
X1895Y1324D01*
X1901Y1324D01*
X1907Y1324D01*
X1912Y1323D01*
X1917Y1321D01*
X1921Y1319D01*
X1924Y1315D01*
X1926Y1310D01*
X1927Y1305D01*
X1926Y1300D01*
X1923Y1296D01*
X1919Y1291D01*
X1915Y1288D01*
X1910Y1285D01*
X1905Y1284D01*
X1900Y1284D01*
X1905Y1285D01*
X1911Y1285D01*
X1916Y1284D01*
X1921Y1283D01*
X1925Y1280D01*
X1927Y1276D01*
X1928Y1270D01*
X1928Y1265D01*
X1925Y1260D01*
X1922Y1256D01*
X1917Y1254D01*
X1912Y1253D01*
X1907Y1252D01*
X1902Y1252D01*
X1897Y1253D01*
X1892Y1255D01*
X1887Y1258D01*
X1816Y1752D02*
X1810Y1752D01*
X1805Y1753D01*
X1800Y1753D01*
X1795Y1752D01*
X1790Y1751D01*
X1785Y1748D01*
X1781Y1744D01*
X1778Y1739D01*
X1776Y1735D01*
X1775Y1729D01*
X1774Y1724D01*
X1774Y1719D01*
X1774Y1713D01*
X1774Y1708D01*
X1774Y1703D01*
X1775Y1698D01*
X1777Y1693D01*
X1781Y1689D01*
X1785Y1685D01*
X1789Y1682D01*
X1794Y1680D01*
X1799Y1678D01*
X1804Y1677D01*
X1809Y1679D01*
X1813Y1681D01*
X1817Y1685D01*
X1819Y1690D01*
X1820Y1695D01*
X1819Y1700D01*
X1818Y1705D01*
X1814Y1709D01*
X1810Y1712D01*
X1805Y1715D01*
X1801Y1716D01*
X1795Y1717D01*
X1790Y1716D01*
X1785Y1713D01*
X1781Y1710D01*
X1779Y1706D01*
X1777Y1701D01*
X2673Y2750D02*
X2675Y2745D01*
X2677Y2741D01*
X2679Y2736D01*
X2680Y2731D01*
X2681Y2726D01*
X2683Y2721D01*
X2685Y2716D01*
X2686Y2711D01*
X2687Y2706D01*
X2687Y2701D01*
X2688Y2696D01*
X2689Y2691D01*
X2691Y2686D01*
X2692Y2681D01*
X2696Y2685D01*
X2698Y2690D01*
X2701Y2694D01*
X2703Y2700D01*
X2705Y2704D01*
X2707Y2709D01*
X2709Y2714D01*
X2710Y2719D01*
X2713Y2715D01*
X2715Y2710D01*
X2716Y2705D01*
X2717Y2700D01*
X2718Y2695D01*
X2719Y2690D01*
X2721Y2685D01*
X2724Y2680D01*
X2725Y2686D01*
X2727Y2690D01*
X2729Y2695D01*
X2731Y2700D01*
X2731Y2706D01*
X2732Y2711D01*
X2733Y2716D01*
X2734Y2721D01*
X2735Y2726D01*
X2737Y2731D01*
X2738Y2736D01*
X2739Y2741D01*
X2740Y2746D01*
X2740Y2751D01*
X1998Y2319D02*
X1993Y2319D01*
X1988Y2319D01*
X1984Y2316D01*
X1981Y2311D01*
X1979Y2306D01*
X1978Y2301D01*
X1977Y2296D01*
X1976Y2291D01*
X1976Y2286D01*
X1976Y2280D01*
X1976Y2275D01*
X1977Y2270D01*
X1978Y2265D01*
X1980Y2260D01*
X1984Y2256D01*
X1988Y2253D01*
X1992Y2250D01*
X1997Y2248D01*
X2002Y2246D01*
X2007Y2246D01*
X2011Y2248D01*
X2015Y2252D01*
X2018Y2256D01*
X2019Y2261D01*
X2021Y2266D01*
X2022Y2271D01*
X2023Y2276D01*
X2023Y2281D01*
X2023Y2287D01*
X2023Y2292D01*
X2022Y2298D01*
X2020Y2302D01*
X2018Y2307D01*
X2014Y2311D01*
X2010Y2314D01*
X2006Y2317D01*
X2002Y2320D01*
X2281Y2309D02*
X2285Y2312D01*
X2291Y2314D01*
X2296Y2315D01*
X2302Y2315D01*
X2307Y2315D01*
X2313Y2314D01*
X2317Y2312D01*
X2322Y2309D01*
X2324Y2304D01*
X2326Y2299D01*
X2325Y2294D01*
X2324Y2289D01*
X2320Y2286D01*
X2315Y2283D01*
X2311Y2281D01*
X2306Y2281D01*
X2300Y2281D01*
X2295Y2283D01*
X2301Y2283D01*
X2306Y2282D01*
X2311Y2282D01*
X2316Y2279D01*
X2320Y2275D01*
X2322Y2271D01*
X2324Y2266D01*
X2324Y2260D01*
X2323Y2255D01*
X2320Y2251D01*
X2317Y2247D01*
X2311Y2245D01*
X2306Y2245D01*
X2301Y2244D01*
X2295Y2246D01*
X2291Y2248D01*
X2286Y2251D01*
X2282Y2253D01*
X2277Y2255D01*
X2619Y2310D02*
X2614Y2313D01*
X2609Y2315D01*
X2604Y2315D01*
X2599Y2315D01*
X2594Y2313D01*
X2589Y2309D01*
X2586Y2305D01*
X2584Y2300D01*
X2583Y2295D01*
X2583Y2289D01*
X2582Y2284D01*
X2582Y2279D01*
X2583Y2274D01*
X2583Y2269D01*
X2583Y2264D01*
X2585Y2259D01*
X2588Y2255D01*
X2592Y2252D01*
X2596Y2249D01*
X2602Y2248D01*
X2607Y2249D01*
X2611Y2252D01*
X2615Y2256D01*
X2617Y2261D01*
X2619Y2266D01*
X2620Y2271D01*
X2619Y2276D01*
X2615Y2279D01*
X2610Y2281D01*
X2605Y2281D01*
X2599Y2281D01*
X2594Y2280D01*
X2589Y2278D01*
X2585Y2275D01*
D11*
D12*
D13*
D14*
M02*
