; This is totally an NC drill file!
M48
INCH
T01C0.020
T02C0.035
T03C0.045
T04C0.100
%
G90
G05
T01
X2.638Y2.475
X2.688Y2.525
X2.450Y2.350
X2.650Y2.725
X2.650Y2.675
X2.750Y2.525
X2.462Y2.612
X1.600Y1.350
X1.712Y1.488
X1.762Y1.550
X1.638Y1.550
X2.362Y2.500
X1.838Y1.550
X1.888Y1.550
X1.912Y1.612
X2.037Y1.500
T02
X1.700Y2.550
X1.700Y2.450
X1.800Y2.450
X1.800Y2.550
X2.000Y2.200
X2.100Y2.200
X2.200Y2.200
X2.300Y2.200
X2.400Y2.200
X2.500Y2.200
X2.600Y2.200
X2.700Y2.200
X2.000Y2.800
X2.100Y2.800
X2.200Y2.800
X2.400Y2.800
X2.500Y2.800
X2.600Y2.800
X2.700Y2.800
X2.100Y2.451
X1.900Y2.447
X1.900Y2.547
X2.100Y2.551
X2.800Y2.800
X2.800Y2.200
X1.900Y2.650
X2.300Y2.650
X1.899Y2.350
X2.301Y2.350
X2.200Y2.451
X2.200Y2.551
X2.400Y2.551
X2.400Y2.451
X2.700Y1.450
X2.700Y1.550
X2.600Y1.550
X2.600Y1.450
X2.400Y1.800
X2.300Y1.800
X2.200Y1.800
X2.100Y1.800
X2.000Y1.800
X1.800Y1.800
X1.700Y1.800
X1.600Y1.800
X1.600Y1.200
X1.700Y1.200
X1.800Y1.200
X1.900Y1.200
X2.000Y1.200
X2.100Y1.200
X2.200Y1.200
X2.300Y1.200
X2.400Y1.200
X2.300Y1.450
X2.500Y1.450
X2.500Y1.550
X2.300Y1.550
X2.000Y1.450
X2.200Y1.450
X2.200Y1.550
X2.000Y1.550
X2.100Y1.350
X2.500Y1.350
X2.500Y1.650
X2.100Y1.650
T03
X1.750Y2.800
X1.850Y2.800
X2.650Y1.800
X2.550Y1.800
T04
X1.600Y2.250
X1.600Y2.750
X2.800Y1.750
X2.800Y1.250
M30
