G04 Top Copper*
%FSLAX23Y23*%
%MOIN*%
G01*
%ADD10C,0.010*%
%ADD11C,0.015*%
%ADD12C,0.035*%
%ADD13C,0.065*%
%ADD14C,0.150*%
D10*
D11*
X2512Y2575D02*
X2512Y2625D01*
X2537Y2625D02*
X2537Y2575D01*
X2562Y2575D02*
X2562Y2625D01*
X2587Y2625D02*
X2587Y2575D01*
X2612Y2575D02*
X2612Y2625D01*
X2638Y2625D02*
X2638Y2575D01*
X2663Y2575D02*
X2663Y2625D01*
X2688Y2625D02*
X2688Y2575D01*
X2713Y2575D02*
X2713Y2625D01*
X2738Y2625D02*
X2738Y2575D01*
X2763Y2575D02*
X2763Y2625D01*
X2788Y2625D02*
X2788Y2575D01*
X2512Y2375D02*
X2512Y2425D01*
X2537Y2425D02*
X2537Y2375D01*
X2562Y2375D02*
X2562Y2425D01*
X2612Y2375D02*
X2612Y2425D01*
X2638Y2425D02*
X2638Y2375D01*
X2663Y2375D02*
X2663Y2425D01*
X2688Y2425D02*
X2688Y2375D01*
X2713Y2375D02*
X2713Y2425D01*
X2738Y2425D02*
X2738Y2375D01*
X2763Y2375D02*
X2763Y2425D01*
X2788Y2425D02*
X2788Y2375D01*
X2663Y2375D02*
X2661Y2366D01*
X2655Y2357D01*
X2648Y2350D01*
X2641Y2343D01*
X2634Y2336D01*
X2627Y2329D01*
X2620Y2322D01*
X2613Y2314D01*
X2606Y2307D01*
X2598Y2300D01*
X2591Y2293D01*
X2584Y2286D01*
X2577Y2278D01*
X2570Y2271D01*
X2563Y2264D01*
X2556Y2257D01*
X2549Y2250D01*
X2542Y2242D01*
X2535Y2235D01*
X2528Y2228D01*
X2521Y2221D01*
X2513Y2214D01*
X2506Y2206D01*
X2500Y2200D01*
X2688Y2375D02*
X2686Y2366D01*
X2684Y2356D01*
X2679Y2347D01*
X2674Y2338D01*
X2669Y2329D01*
X2665Y2320D01*
X2660Y2312D01*
X2655Y2303D01*
X2650Y2294D01*
X2645Y2285D01*
X2641Y2276D01*
X2636Y2267D01*
X2631Y2258D01*
X2626Y2249D01*
X2622Y2240D01*
X2617Y2231D01*
X2612Y2223D01*
X2607Y2214D01*
X2603Y2205D01*
X2600Y2200D01*
X2200Y2200D02*
X2206Y2207D01*
X2213Y2214D01*
X2219Y2222D01*
X2226Y2230D01*
X2233Y2237D01*
X2240Y2245D01*
X2246Y2252D01*
X2254Y2259D01*
X2262Y2265D01*
X2271Y2269D01*
X2281Y2272D01*
X2291Y2275D01*
X2301Y2277D01*
X2310Y2280D01*
X2320Y2282D01*
X2330Y2284D01*
X2340Y2287D01*
X2349Y2289D01*
X2359Y2292D01*
X2369Y2294D01*
X2379Y2297D01*
X2389Y2299D01*
X2399Y2301D01*
X2408Y2304D01*
X2418Y2306D01*
X2428Y2309D01*
X2438Y2311D01*
X2448Y2314D01*
X2457Y2316D01*
X2467Y2319D01*
X2476Y2325D01*
X2484Y2330D01*
X2493Y2335D01*
X2502Y2340D01*
X2510Y2345D01*
X2519Y2350D01*
X2528Y2355D01*
X2534Y2363D01*
X2537Y2373D01*
X2537Y2375D01*
X2300Y2200D02*
X2308Y2195D01*
X2317Y2190D01*
X2325Y2185D01*
X2334Y2180D01*
X2343Y2175D01*
X2352Y2170D01*
X2360Y2165D01*
X2369Y2160D01*
X2378Y2155D01*
X2388Y2152D01*
X2397Y2149D01*
X2407Y2147D01*
X2417Y2144D01*
X2427Y2142D01*
X2436Y2139D01*
X2446Y2137D01*
X2456Y2134D01*
X2466Y2132D01*
X2476Y2129D01*
X2485Y2127D01*
X2495Y2125D01*
X2505Y2125D01*
X2516Y2125D01*
X2526Y2125D01*
X2536Y2125D01*
X2546Y2125D01*
X2556Y2125D01*
X2566Y2125D01*
X2576Y2125D01*
X2586Y2125D01*
X2596Y2125D01*
X2606Y2126D01*
X2616Y2127D01*
X2626Y2130D01*
X2636Y2132D01*
X2646Y2135D01*
X2656Y2137D01*
X2665Y2140D01*
X2675Y2142D01*
X2685Y2145D01*
X2695Y2147D01*
X2705Y2150D01*
X2714Y2152D01*
X2724Y2156D01*
X2732Y2162D01*
X2739Y2169D01*
X2745Y2177D01*
X2748Y2187D01*
X2750Y2197D01*
X2750Y2207D01*
X2747Y2217D01*
X2745Y2227D01*
X2743Y2236D01*
X2741Y2246D01*
X2739Y2256D01*
X2736Y2266D01*
X2734Y2276D01*
X2732Y2286D01*
X2730Y2296D01*
X2728Y2305D01*
X2725Y2315D01*
X2723Y2325D01*
X2721Y2335D01*
X2719Y2345D01*
X2716Y2355D01*
X2714Y2365D01*
X2713Y2375D01*
X2713Y2375D01*
X2612Y2375D02*
X2611Y2366D01*
X2609Y2356D01*
X2603Y2347D01*
X2597Y2339D01*
X2590Y2333D01*
X2582Y2327D01*
X2574Y2321D01*
X2566Y2314D01*
X2558Y2308D01*
X2550Y2302D01*
X2542Y2296D01*
X2534Y2290D01*
X2526Y2283D01*
X2518Y2277D01*
X2510Y2271D01*
X2502Y2265D01*
X2494Y2259D01*
X2486Y2252D01*
X2478Y2246D01*
X2470Y2240D01*
X2463Y2233D01*
X2457Y2225D01*
X2453Y2216D01*
X2450Y2206D01*
X2450Y2196D01*
X2452Y2186D01*
X2456Y2176D01*
X2462Y2168D01*
X2469Y2161D01*
X2477Y2156D01*
X2487Y2152D01*
X2497Y2150D01*
X2507Y2150D01*
X2517Y2150D01*
X2527Y2150D01*
X2537Y2150D01*
X2547Y2150D01*
X2557Y2150D01*
X2567Y2150D01*
X2577Y2150D01*
X2588Y2150D01*
X2598Y2150D01*
X2608Y2151D01*
X2617Y2153D01*
X2627Y2158D01*
X2635Y2163D01*
X2644Y2168D01*
X2653Y2173D01*
X2662Y2178D01*
X2670Y2183D01*
X2679Y2188D01*
X2688Y2193D01*
X2697Y2198D01*
X2700Y2200D01*
X2638Y2575D02*
X2638Y2566D01*
X2638Y2556D01*
X2638Y2546D01*
X2638Y2535D01*
X2638Y2525D01*
X2638Y2515D01*
X2638Y2505D01*
X2638Y2495D01*
X2638Y2485D01*
X2638Y2475D01*
X2638Y2475D02*
X2638Y2466D01*
X2638Y2456D01*
X2638Y2446D01*
X2638Y2435D01*
X2638Y2425D01*
X2638Y2425D01*
X2587Y2625D02*
X2586Y2634D01*
X2584Y2644D01*
X2581Y2654D01*
X2577Y2663D01*
X2571Y2671D01*
X2564Y2679D01*
X2557Y2685D01*
X2549Y2692D01*
X2541Y2698D01*
X2534Y2705D01*
X2526Y2712D01*
X2518Y2718D01*
X2511Y2725D01*
X2503Y2731D01*
X2495Y2738D01*
X2488Y2745D01*
X2480Y2751D01*
X2472Y2758D01*
X2465Y2764D01*
X2458Y2772D01*
X2454Y2781D01*
X2451Y2791D01*
X2450Y2801D01*
X2451Y2811D01*
X2454Y2821D01*
X2459Y2829D01*
X2466Y2837D01*
X2474Y2843D01*
X2483Y2847D01*
X2493Y2850D01*
X2503Y2850D01*
X2513Y2848D01*
X2523Y2845D01*
X2531Y2839D01*
X2540Y2834D01*
X2549Y2829D01*
X2558Y2824D01*
X2566Y2819D01*
X2575Y2814D01*
X2584Y2809D01*
X2593Y2804D01*
X2600Y2800D01*
X2500Y2800D02*
X2506Y2793D01*
X2512Y2785D01*
X2518Y2777D01*
X2525Y2769D01*
X2531Y2761D01*
X2537Y2753D01*
X2544Y2745D01*
X2550Y2738D01*
X2556Y2730D01*
X2563Y2722D01*
X2569Y2714D01*
X2575Y2706D01*
X2581Y2698D01*
X2588Y2690D01*
X2593Y2682D01*
X2599Y2674D01*
X2604Y2665D01*
X2607Y2655D01*
X2609Y2645D01*
X2611Y2635D01*
X2612Y2625D01*
X2612Y2625D01*
X2562Y2625D02*
X2561Y2634D01*
X2558Y2644D01*
X2554Y2653D01*
X2547Y2660D01*
X2539Y2667D01*
X2531Y2672D01*
X2522Y2677D01*
X2513Y2682D01*
X2504Y2686D01*
X2495Y2690D01*
X2485Y2694D01*
X2476Y2698D01*
X2466Y2701D01*
X2457Y2705D01*
X2447Y2708D01*
X2438Y2712D01*
X2428Y2715D01*
X2419Y2719D01*
X2410Y2722D01*
X2400Y2726D01*
X2391Y2729D01*
X2381Y2733D01*
X2372Y2736D01*
X2362Y2740D01*
X2353Y2743D01*
X2343Y2747D01*
X2334Y2750D01*
X2324Y2754D01*
X2315Y2757D01*
X2305Y2761D01*
X2296Y2764D01*
X2286Y2768D01*
X2277Y2771D01*
X2268Y2775D01*
X2258Y2778D01*
X2249Y2782D01*
X2239Y2785D01*
X2230Y2789D01*
X2220Y2793D01*
X2211Y2796D01*
X2201Y2800D01*
X2200Y2800D01*
X2100Y2800D02*
X2108Y2795D01*
X2117Y2790D01*
X2125Y2785D01*
X2134Y2780D01*
X2143Y2775D01*
X2152Y2770D01*
X2160Y2765D01*
X2169Y2760D01*
X2178Y2755D01*
X2188Y2752D01*
X2197Y2749D01*
X2207Y2746D01*
X2217Y2743D01*
X2226Y2741D01*
X2236Y2738D01*
X2246Y2735D01*
X2256Y2733D01*
X2265Y2730D01*
X2275Y2727D01*
X2285Y2724D01*
X2294Y2722D01*
X2304Y2719D01*
X2314Y2716D01*
X2324Y2714D01*
X2333Y2711D01*
X2343Y2708D01*
X2353Y2705D01*
X2363Y2703D01*
X2372Y2700D01*
X2382Y2697D01*
X2392Y2694D01*
X2401Y2692D01*
X2411Y2689D01*
X2421Y2686D01*
X2431Y2684D01*
X2440Y2681D01*
X2450Y2678D01*
X2460Y2675D01*
X2470Y2673D01*
X2479Y2670D01*
X2489Y2666D01*
X2498Y2661D01*
X2506Y2657D01*
X2515Y2652D01*
X2524Y2647D01*
X2532Y2641D01*
X2537Y2631D01*
X2537Y2625D01*
X2788Y2425D02*
X2792Y2433D01*
X2798Y2441D01*
X2803Y2450D01*
X2808Y2459D01*
X2814Y2467D01*
X2819Y2476D01*
X2824Y2484D01*
X2829Y2493D01*
X2834Y2502D01*
X2838Y2511D01*
X2843Y2520D01*
X2848Y2529D01*
X2852Y2538D01*
X2857Y2547D01*
X2860Y2557D01*
X2861Y2567D01*
X2862Y2577D01*
X2862Y2587D01*
X2862Y2597D01*
X2862Y2607D01*
X2862Y2617D01*
X2862Y2627D01*
X2862Y2637D01*
X2861Y2647D01*
X2860Y2658D01*
X2859Y2668D01*
X2859Y2678D01*
X2858Y2688D01*
X2857Y2698D01*
X2857Y2708D01*
X2856Y2718D01*
X2855Y2728D01*
X2854Y2738D01*
X2854Y2748D01*
X2853Y2758D01*
X2852Y2768D01*
X2852Y2778D01*
X2851Y2789D01*
X2850Y2799D01*
X2849Y2809D01*
X2846Y2818D01*
X2842Y2827D01*
X2835Y2835D01*
X2828Y2842D01*
X2819Y2846D01*
X2809Y2849D01*
X2799Y2850D01*
X2789Y2849D01*
X2779Y2846D01*
X2771Y2841D01*
X2762Y2836D01*
X2753Y2831D01*
X2744Y2826D01*
X2736Y2820D01*
X2727Y2815D01*
X2718Y2810D01*
X2709Y2805D01*
X2701Y2800D01*
X2700Y2800D01*
X2800Y2800D02*
X2802Y2791D01*
X2804Y2781D01*
X2806Y2771D01*
X2809Y2761D01*
X2811Y2752D01*
X2813Y2742D01*
X2815Y2732D01*
X2817Y2722D01*
X2820Y2712D01*
X2822Y2702D01*
X2824Y2692D01*
X2826Y2683D01*
X2829Y2673D01*
X2831Y2663D01*
X2833Y2653D01*
X2835Y2643D01*
X2837Y2633D01*
X2837Y2623D01*
X2837Y2613D01*
X2837Y2603D01*
X2837Y2593D01*
X2837Y2583D01*
X2837Y2573D01*
X2836Y2563D01*
X2832Y2553D01*
X2827Y2544D01*
X2823Y2535D01*
X2818Y2526D01*
X2813Y2517D01*
X2809Y2508D01*
X2804Y2499D01*
X2799Y2491D01*
X2793Y2482D01*
X2788Y2474D01*
X2783Y2465D01*
X2778Y2456D01*
X2772Y2448D01*
X2767Y2439D01*
X2763Y2430D01*
X2763Y2425D01*
X2663Y2575D02*
X2664Y2566D01*
X2669Y2557D01*
X2674Y2548D01*
X2679Y2540D01*
X2684Y2531D01*
X2688Y2525D01*
X2713Y2575D02*
X2711Y2566D01*
X2706Y2557D01*
X2701Y2548D01*
X2696Y2540D01*
X2691Y2531D01*
X2688Y2525D01*
X2587Y2375D02*
X2587Y2425D01*
X2512Y2375D02*
X2504Y2372D01*
X2495Y2368D01*
X2485Y2364D01*
X2476Y2360D01*
X2466Y2357D01*
X2457Y2353D01*
X2450Y2350D01*
X2587Y2375D02*
X2586Y2366D01*
X2580Y2357D01*
X2572Y2352D01*
X2563Y2347D01*
X2554Y2342D01*
X2546Y2336D01*
X2537Y2331D01*
X2528Y2326D01*
X2520Y2321D01*
X2511Y2316D01*
X2502Y2311D01*
X2493Y2306D01*
X2485Y2301D01*
X2476Y2296D01*
X2466Y2292D01*
X2457Y2290D01*
X2447Y2288D01*
X2437Y2285D01*
X2427Y2283D01*
X2417Y2280D01*
X2408Y2278D01*
X2398Y2275D01*
X2388Y2273D01*
X2378Y2271D01*
X2368Y2268D01*
X2359Y2266D01*
X2349Y2263D01*
X2339Y2261D01*
X2329Y2259D01*
X2319Y2256D01*
X2309Y2254D01*
X2300Y2251D01*
X2290Y2249D01*
X2280Y2246D01*
X2271Y2241D01*
X2264Y2234D01*
X2258Y2226D01*
X2253Y2217D01*
X2251Y2208D01*
X2250Y2197D01*
X2248Y2187D01*
X2245Y2178D01*
X2240Y2169D01*
X2233Y2162D01*
X2224Y2156D01*
X2215Y2152D01*
X2205Y2150D01*
X2195Y2150D01*
X2185Y2152D01*
X2176Y2156D01*
X2167Y2161D01*
X2158Y2166D01*
X2150Y2171D01*
X2141Y2176D01*
X2132Y2181D01*
X2123Y2187D01*
X2115Y2192D01*
X2106Y2197D01*
X2100Y2200D01*
X2400Y2800D02*
X2406Y2807D01*
X2413Y2814D01*
X2419Y2822D01*
X2426Y2830D01*
X2433Y2837D01*
X2440Y2845D01*
X2446Y2852D01*
X2454Y2859D01*
X2462Y2865D01*
X2471Y2869D01*
X2481Y2872D01*
X2491Y2874D01*
X2501Y2875D01*
X2511Y2874D01*
X2521Y2872D01*
X2531Y2869D01*
X2540Y2867D01*
X2550Y2864D01*
X2560Y2862D01*
X2570Y2859D01*
X2580Y2857D01*
X2589Y2854D01*
X2599Y2852D01*
X2609Y2849D01*
X2619Y2846D01*
X2628Y2842D01*
X2635Y2835D01*
X2642Y2827D01*
X2646Y2818D01*
X2649Y2809D01*
X2650Y2799D01*
X2651Y2789D01*
X2655Y2779D01*
X2660Y2770D01*
X2666Y2763D01*
X2675Y2757D01*
X2683Y2751D01*
X2691Y2746D01*
X2700Y2740D01*
X2708Y2734D01*
X2717Y2729D01*
X2725Y2723D01*
X2733Y2718D01*
X2742Y2712D01*
X2750Y2706D01*
X2759Y2701D01*
X2767Y2695D01*
X2775Y2690D01*
X2783Y2684D01*
X2791Y2677D01*
X2798Y2669D01*
X2803Y2661D01*
X2807Y2651D01*
X2810Y2642D01*
X2812Y2632D01*
X2812Y2622D01*
X2812Y2612D01*
X2812Y2602D01*
X2812Y2591D01*
X2812Y2581D01*
X2812Y2571D01*
X2809Y2562D01*
X2804Y2553D01*
X2799Y2544D01*
X2795Y2535D01*
X2790Y2526D01*
X2785Y2517D01*
X2781Y2508D01*
X2775Y2499D01*
X2770Y2491D01*
X2765Y2482D01*
X2759Y2474D01*
X2754Y2465D01*
X2749Y2457D01*
X2743Y2448D01*
X2740Y2439D01*
X2738Y2429D01*
X2738Y2425D01*
X2788Y2625D02*
X2786Y2634D01*
X2784Y2644D01*
X2779Y2653D01*
X2772Y2661D01*
X2764Y2667D01*
X2755Y2672D01*
X2746Y2676D01*
X2737Y2681D01*
X2728Y2685D01*
X2719Y2690D01*
X2710Y2694D01*
X2701Y2699D01*
X2692Y2704D01*
X2683Y2708D01*
X2674Y2713D01*
X2665Y2717D01*
X2656Y2722D01*
X2650Y2725D01*
X2650Y2675D02*
X2659Y2673D01*
X2669Y2670D01*
X2678Y2667D01*
X2688Y2665D01*
X2698Y2662D01*
X2708Y2659D01*
X2717Y2656D01*
X2727Y2654D01*
X2737Y2651D01*
X2747Y2648D01*
X2755Y2643D01*
X2761Y2634D01*
X2763Y2625D01*
X2738Y2575D02*
X2739Y2566D01*
X2742Y2556D01*
X2744Y2546D01*
X2747Y2537D01*
X2750Y2527D01*
X2750Y2525D01*
X1588Y1600D02*
X1588Y1650D01*
X1613Y1650D02*
X1613Y1600D01*
X1638Y1600D02*
X1638Y1650D01*
X1663Y1650D02*
X1663Y1600D01*
X1688Y1600D02*
X1688Y1650D01*
X1713Y1650D02*
X1713Y1600D01*
X1737Y1600D02*
X1737Y1650D01*
X1762Y1650D02*
X1762Y1600D01*
X1787Y1600D02*
X1787Y1650D01*
X1812Y1650D02*
X1812Y1600D01*
X1837Y1600D02*
X1837Y1650D01*
X1862Y1650D02*
X1862Y1600D01*
X1862Y1450D02*
X1862Y1400D01*
X1837Y1400D02*
X1837Y1450D01*
X1812Y1450D02*
X1812Y1400D01*
X1787Y1400D02*
X1787Y1450D01*
X1762Y1400D02*
X1762Y1450D01*
X1737Y1450D02*
X1737Y1400D01*
X1712Y1400D02*
X1712Y1450D01*
X1688Y1450D02*
X1688Y1400D01*
X1663Y1400D02*
X1663Y1450D01*
X1638Y1450D02*
X1638Y1400D01*
X1613Y1400D02*
X1613Y1450D01*
X1588Y1450D02*
X1588Y1400D01*
X1588Y1400D02*
X1589Y1391D01*
X1591Y1381D01*
X1594Y1371D01*
X1597Y1362D01*
X1599Y1352D01*
X1600Y1350D01*
X1588Y1600D02*
X1586Y1591D01*
X1584Y1581D01*
X1583Y1571D01*
X1581Y1561D01*
X1579Y1551D01*
X1578Y1541D01*
X1576Y1531D01*
X1574Y1521D01*
X1572Y1511D01*
X1571Y1501D01*
X1569Y1491D01*
X1567Y1481D01*
X1566Y1471D01*
X1564Y1461D01*
X1563Y1451D01*
X1563Y1441D01*
X1563Y1431D01*
X1563Y1421D01*
X1563Y1411D01*
X1563Y1401D01*
X1563Y1391D01*
X1563Y1381D01*
X1564Y1371D01*
X1564Y1361D01*
X1565Y1351D01*
X1566Y1341D01*
X1569Y1331D01*
X1571Y1321D01*
X1573Y1311D01*
X1576Y1301D01*
X1578Y1291D01*
X1580Y1282D01*
X1583Y1272D01*
X1585Y1262D01*
X1588Y1252D01*
X1590Y1242D01*
X1592Y1232D01*
X1595Y1223D01*
X1597Y1213D01*
X1599Y1203D01*
X1600Y1200D01*
X1663Y1400D02*
X1664Y1391D01*
X1666Y1381D01*
X1668Y1371D01*
X1670Y1361D01*
X1671Y1351D01*
X1673Y1341D01*
X1675Y1331D01*
X1677Y1321D01*
X1679Y1311D01*
X1681Y1301D01*
X1683Y1292D01*
X1685Y1282D01*
X1686Y1272D01*
X1688Y1262D01*
X1690Y1252D01*
X1692Y1242D01*
X1694Y1232D01*
X1696Y1222D01*
X1698Y1212D01*
X1700Y1202D01*
X1700Y1200D01*
X1613Y1400D02*
X1614Y1391D01*
X1620Y1382D01*
X1626Y1374D01*
X1631Y1366D01*
X1634Y1356D01*
X1635Y1346D01*
X1636Y1336D01*
X1637Y1326D01*
X1639Y1316D01*
X1640Y1306D01*
X1641Y1296D01*
X1642Y1286D01*
X1643Y1276D01*
X1644Y1266D01*
X1645Y1256D01*
X1646Y1246D01*
X1647Y1236D01*
X1648Y1226D01*
X1649Y1216D01*
X1650Y1206D01*
X1650Y1195D01*
X1652Y1186D01*
X1656Y1176D01*
X1662Y1168D01*
X1669Y1161D01*
X1677Y1155D01*
X1687Y1152D01*
X1697Y1150D01*
X1707Y1151D01*
X1717Y1153D01*
X1726Y1157D01*
X1735Y1162D01*
X1743Y1167D01*
X1752Y1172D01*
X1761Y1177D01*
X1770Y1183D01*
X1778Y1188D01*
X1787Y1193D01*
X1796Y1198D01*
X1800Y1200D01*
X1688Y1400D02*
X1689Y1391D01*
X1695Y1382D01*
X1702Y1375D01*
X1708Y1367D01*
X1715Y1360D01*
X1722Y1352D01*
X1728Y1345D01*
X1735Y1337D01*
X1742Y1330D01*
X1749Y1323D01*
X1756Y1315D01*
X1763Y1308D01*
X1770Y1301D01*
X1777Y1294D01*
X1785Y1287D01*
X1792Y1280D01*
X1799Y1272D01*
X1806Y1265D01*
X1813Y1258D01*
X1820Y1251D01*
X1827Y1244D01*
X1834Y1236D01*
X1841Y1229D01*
X1846Y1220D01*
X1849Y1210D01*
X1850Y1200D01*
X1851Y1190D01*
X1854Y1181D01*
X1859Y1172D01*
X1865Y1164D01*
X1873Y1158D01*
X1882Y1153D01*
X1892Y1151D01*
X1902Y1148D01*
X1912Y1145D01*
X1921Y1143D01*
X1931Y1140D01*
X1941Y1138D01*
X1951Y1135D01*
X1960Y1133D01*
X1970Y1130D01*
X1980Y1128D01*
X1990Y1126D01*
X2000Y1125D01*
X2010Y1125D01*
X2020Y1125D01*
X2030Y1125D01*
X2040Y1125D01*
X2050Y1125D01*
X2061Y1125D01*
X2071Y1125D01*
X2081Y1125D01*
X2091Y1125D01*
X2101Y1125D01*
X2111Y1125D01*
X2121Y1125D01*
X2131Y1125D01*
X2141Y1125D01*
X2151Y1125D01*
X2162Y1125D01*
X2172Y1125D01*
X2182Y1125D01*
X2192Y1125D01*
X2202Y1125D01*
X2212Y1126D01*
X2222Y1128D01*
X2231Y1132D01*
X2240Y1137D01*
X2248Y1143D01*
X2255Y1150D01*
X2262Y1157D01*
X2269Y1165D01*
X2276Y1173D01*
X2282Y1180D01*
X2289Y1188D01*
X2296Y1195D01*
X2300Y1200D01*
X1737Y1400D02*
X1738Y1391D01*
X1741Y1381D01*
X1743Y1371D01*
X1748Y1362D01*
X1754Y1354D01*
X1760Y1346D01*
X1768Y1340D01*
X1777Y1335D01*
X1786Y1330D01*
X1796Y1327D01*
X1805Y1323D01*
X1815Y1320D01*
X1824Y1317D01*
X1834Y1313D01*
X1843Y1310D01*
X1853Y1306D01*
X1862Y1303D01*
X1872Y1299D01*
X1881Y1296D01*
X1891Y1293D01*
X1900Y1289D01*
X1910Y1286D01*
X1919Y1282D01*
X1929Y1279D01*
X1938Y1275D01*
X1948Y1272D01*
X1957Y1269D01*
X1967Y1265D01*
X1976Y1262D01*
X1986Y1258D01*
X1995Y1255D01*
X2005Y1252D01*
X2014Y1248D01*
X2023Y1244D01*
X2032Y1239D01*
X2041Y1234D01*
X2050Y1229D01*
X2058Y1224D01*
X2067Y1219D01*
X2076Y1214D01*
X2085Y1209D01*
X2093Y1204D01*
X2100Y1200D01*
X2200Y1200D02*
X2192Y1205D01*
X2183Y1210D01*
X2175Y1215D01*
X2166Y1220D01*
X2157Y1225D01*
X2148Y1230D01*
X2140Y1235D01*
X2131Y1240D01*
X2122Y1245D01*
X2112Y1248D01*
X2103Y1252D01*
X2093Y1255D01*
X2084Y1258D01*
X2074Y1261D01*
X2065Y1264D01*
X2055Y1267D01*
X2045Y1271D01*
X2036Y1274D01*
X2026Y1277D01*
X2017Y1280D01*
X2007Y1283D01*
X1997Y1286D01*
X1988Y1290D01*
X1978Y1293D01*
X1969Y1296D01*
X1959Y1299D01*
X1949Y1302D01*
X1940Y1305D01*
X1930Y1309D01*
X1921Y1312D01*
X1911Y1315D01*
X1902Y1318D01*
X1892Y1321D01*
X1882Y1325D01*
X1873Y1328D01*
X1863Y1331D01*
X1854Y1334D01*
X1844Y1337D01*
X1834Y1340D01*
X1825Y1344D01*
X1815Y1347D01*
X1806Y1350D01*
X1796Y1353D01*
X1787Y1358D01*
X1779Y1363D01*
X1772Y1371D01*
X1767Y1380D01*
X1764Y1389D01*
X1763Y1399D01*
X1762Y1400D01*
X1787Y1400D02*
X1789Y1391D01*
X1795Y1382D01*
X1803Y1377D01*
X1813Y1374D01*
X1822Y1371D01*
X1832Y1368D01*
X1842Y1365D01*
X1851Y1362D01*
X1861Y1359D01*
X1871Y1356D01*
X1880Y1353D01*
X1890Y1350D01*
X1900Y1347D01*
X1909Y1344D01*
X1919Y1341D01*
X1929Y1338D01*
X1938Y1335D01*
X1948Y1332D01*
X1958Y1328D01*
X1967Y1325D01*
X1977Y1322D01*
X1986Y1319D01*
X1996Y1316D01*
X2006Y1313D01*
X2015Y1310D01*
X2025Y1307D01*
X2035Y1304D01*
X2044Y1301D01*
X2054Y1298D01*
X2063Y1295D01*
X2073Y1292D01*
X2083Y1289D01*
X2092Y1286D01*
X2102Y1283D01*
X2112Y1280D01*
X2121Y1277D01*
X2131Y1274D01*
X2141Y1271D01*
X2150Y1268D01*
X2160Y1265D01*
X2169Y1262D01*
X2179Y1259D01*
X2189Y1256D01*
X2198Y1253D01*
X2208Y1250D01*
X2218Y1247D01*
X2227Y1242D01*
X2235Y1236D01*
X2241Y1228D01*
X2246Y1219D01*
X2249Y1210D01*
X2250Y1200D01*
X2249Y1190D01*
X2246Y1180D01*
X2241Y1171D01*
X2234Y1164D01*
X2226Y1158D01*
X2217Y1153D01*
X2207Y1151D01*
X2197Y1150D01*
X2187Y1150D01*
X2177Y1150D01*
X2167Y1150D01*
X2157Y1150D01*
X2147Y1150D01*
X2137Y1150D01*
X2127Y1150D01*
X2117Y1150D01*
X2106Y1150D01*
X2096Y1150D01*
X2086Y1150D01*
X2076Y1150D01*
X2066Y1150D01*
X2056Y1150D01*
X2046Y1150D01*
X2036Y1150D01*
X2026Y1150D01*
X2016Y1150D01*
X2005Y1150D01*
X1995Y1150D01*
X1985Y1152D01*
X1976Y1156D01*
X1967Y1161D01*
X1959Y1166D01*
X1950Y1171D01*
X1941Y1176D01*
X1932Y1181D01*
X1924Y1186D01*
X1915Y1191D01*
X1906Y1197D01*
X1900Y1200D01*
X1613Y1650D02*
X1614Y1659D01*
X1616Y1669D01*
X1618Y1679D01*
X1621Y1689D01*
X1626Y1697D01*
X1631Y1706D01*
X1637Y1714D01*
X1643Y1722D01*
X1649Y1730D01*
X1655Y1739D01*
X1661Y1747D01*
X1667Y1755D01*
X1673Y1763D01*
X1679Y1771D01*
X1685Y1779D01*
X1691Y1787D01*
X1697Y1796D01*
X1700Y1800D01*
X1638Y1650D02*
X1639Y1659D01*
X1641Y1669D01*
X1643Y1679D01*
X1649Y1687D01*
X1654Y1696D01*
X1661Y1704D01*
X1669Y1710D01*
X1677Y1716D01*
X1685Y1721D01*
X1694Y1727D01*
X1702Y1733D01*
X1710Y1738D01*
X1719Y1744D01*
X1727Y1750D01*
X1735Y1756D01*
X1744Y1761D01*
X1752Y1767D01*
X1760Y1773D01*
X1769Y1778D01*
X1777Y1784D01*
X1785Y1790D01*
X1794Y1796D01*
X1800Y1800D01*
X1688Y1650D02*
X1689Y1659D01*
X1695Y1667D01*
X1703Y1673D01*
X1713Y1676D01*
X1722Y1680D01*
X1732Y1683D01*
X1741Y1687D01*
X1751Y1690D01*
X1760Y1693D01*
X1770Y1697D01*
X1780Y1700D01*
X1789Y1703D01*
X1799Y1707D01*
X1808Y1710D01*
X1818Y1714D01*
X1827Y1717D01*
X1837Y1720D01*
X1846Y1722D01*
X1856Y1724D01*
X1866Y1725D01*
X1877Y1725D01*
X1887Y1725D01*
X1897Y1725D01*
X1907Y1725D01*
X1917Y1725D01*
X1927Y1725D01*
X1937Y1725D01*
X1947Y1725D01*
X1957Y1725D01*
X1967Y1725D01*
X1978Y1725D01*
X1988Y1725D01*
X1998Y1725D01*
X2008Y1726D01*
X2018Y1728D01*
X2028Y1730D01*
X2036Y1735D01*
X2045Y1740D01*
X2053Y1747D01*
X2060Y1754D01*
X2066Y1762D01*
X2073Y1770D01*
X2080Y1777D01*
X2086Y1785D01*
X2093Y1792D01*
X2100Y1800D01*
X2100Y1800D01*
X1663Y1650D02*
X1664Y1659D01*
X1666Y1669D01*
X1672Y1677D01*
X1678Y1686D01*
X1686Y1691D01*
X1695Y1697D01*
X1704Y1700D01*
X1714Y1703D01*
X1723Y1707D01*
X1733Y1710D01*
X1742Y1713D01*
X1752Y1717D01*
X1761Y1720D01*
X1771Y1723D01*
X1780Y1727D01*
X1790Y1730D01*
X1799Y1734D01*
X1809Y1737D01*
X1818Y1740D01*
X1828Y1744D01*
X1838Y1746D01*
X1848Y1747D01*
X1858Y1749D01*
X1868Y1750D01*
X1878Y1750D01*
X1888Y1750D01*
X1898Y1750D01*
X1908Y1750D01*
X1918Y1750D01*
X1928Y1750D01*
X1939Y1750D01*
X1949Y1750D01*
X1959Y1750D01*
X1969Y1750D01*
X1979Y1750D01*
X1989Y1750D01*
X1999Y1750D01*
X2009Y1751D01*
X2019Y1754D01*
X2028Y1759D01*
X2036Y1765D01*
X2042Y1773D01*
X2047Y1782D01*
X2049Y1792D01*
X2050Y1802D01*
X2051Y1812D01*
X2055Y1821D01*
X2060Y1830D01*
X2067Y1837D01*
X2075Y1843D01*
X2084Y1847D01*
X2094Y1850D01*
X2104Y1850D01*
X2114Y1848D01*
X2123Y1844D01*
X2132Y1839D01*
X2141Y1834D01*
X2150Y1829D01*
X2158Y1824D01*
X2167Y1819D01*
X2176Y1814D01*
X2185Y1809D01*
X2193Y1804D01*
X2200Y1800D01*
X1712Y1450D02*
X1712Y1459D01*
X1712Y1469D01*
X1712Y1479D01*
X1712Y1488D01*
X1712Y1488D02*
X1713Y1497D01*
X1713Y1507D01*
X1713Y1517D01*
X1713Y1527D01*
X1713Y1537D01*
X1713Y1547D01*
X1713Y1557D01*
X1713Y1567D01*
X1713Y1578D01*
X1713Y1588D01*
X1713Y1598D01*
X1713Y1600D01*
X1737Y1600D02*
X1739Y1591D01*
X1744Y1582D01*
X1749Y1573D01*
X1754Y1565D01*
X1759Y1556D01*
X1762Y1550D01*
X1762Y1550D02*
X1767Y1558D01*
X1772Y1567D01*
X1777Y1575D01*
X1782Y1584D01*
X1787Y1593D01*
X1787Y1600D01*
X1638Y1550D02*
X1638Y1541D01*
X1638Y1531D01*
X1638Y1521D01*
X1638Y1510D01*
X1638Y1500D01*
X1638Y1490D01*
X1638Y1480D01*
X1638Y1470D01*
X1638Y1460D01*
X1638Y1450D01*
X1837Y1650D02*
X1839Y1659D01*
X1845Y1668D01*
X1853Y1673D01*
X1863Y1675D01*
X1873Y1674D01*
X1883Y1674D01*
X1893Y1673D01*
X1903Y1673D01*
X1914Y1672D01*
X1924Y1671D01*
X1934Y1670D01*
X1944Y1669D01*
X1954Y1668D01*
X1964Y1667D01*
X1974Y1665D01*
X1984Y1664D01*
X1994Y1663D01*
X2004Y1662D01*
X2014Y1660D01*
X2024Y1659D01*
X2034Y1658D01*
X2044Y1657D01*
X2054Y1656D01*
X2064Y1654D01*
X2074Y1653D01*
X2084Y1652D01*
X2094Y1651D01*
X2100Y1650D01*
X1812Y1650D02*
X1814Y1659D01*
X1816Y1669D01*
X1822Y1678D01*
X1828Y1686D01*
X1836Y1691D01*
X1845Y1697D01*
X1854Y1699D01*
X1864Y1700D01*
X1875Y1700D01*
X1885Y1700D01*
X1895Y1700D01*
X1905Y1700D01*
X1915Y1700D01*
X1925Y1700D01*
X1935Y1700D01*
X1945Y1700D01*
X1955Y1700D01*
X1965Y1700D01*
X1976Y1700D01*
X1986Y1700D01*
X1996Y1700D01*
X2006Y1700D01*
X2016Y1700D01*
X2026Y1700D01*
X2036Y1700D01*
X2046Y1700D01*
X2056Y1700D01*
X2066Y1700D01*
X2077Y1700D01*
X2087Y1700D01*
X2097Y1700D01*
X2107Y1699D01*
X2117Y1697D01*
X2126Y1693D01*
X2134Y1687D01*
X2141Y1679D01*
X2146Y1670D01*
X2149Y1661D01*
X2150Y1651D01*
X2149Y1641D01*
X2146Y1631D01*
X2141Y1622D01*
X2135Y1614D01*
X2127Y1608D01*
X2118Y1603D01*
X2109Y1599D01*
X2100Y1595D01*
X2090Y1591D01*
X2081Y1587D01*
X2072Y1583D01*
X2063Y1578D01*
X2054Y1574D01*
X2044Y1570D01*
X2035Y1566D01*
X2026Y1562D01*
X2017Y1558D01*
X2008Y1553D01*
X2000Y1550D01*
X1812Y1450D02*
X1814Y1459D01*
X1816Y1469D01*
X1819Y1479D01*
X1821Y1488D01*
X1824Y1498D01*
X1826Y1508D01*
X1829Y1518D01*
X1832Y1528D01*
X1834Y1537D01*
X1837Y1547D01*
X1838Y1550D01*
X1837Y1450D02*
X1839Y1459D01*
X1844Y1468D01*
X1849Y1477D01*
X1853Y1486D01*
X1858Y1495D01*
X1863Y1504D01*
X1868Y1513D01*
X1872Y1522D01*
X1877Y1530D01*
X1882Y1539D01*
X1887Y1548D01*
X1888Y1550D01*
X1912Y1612D02*
X1914Y1603D01*
X1916Y1593D01*
X1917Y1584D01*
X1919Y1574D01*
X1921Y1564D01*
X1922Y1554D01*
X1922Y1544D01*
X1919Y1534D01*
X1913Y1525D01*
X1907Y1517D01*
X1902Y1509D01*
X1896Y1500D01*
X1891Y1492D01*
X1885Y1483D01*
X1879Y1475D01*
X1874Y1467D01*
X1868Y1458D01*
X1862Y1450D01*
X2100Y1350D02*
X2092Y1354D01*
X2082Y1358D01*
X2073Y1362D01*
X2064Y1366D01*
X2055Y1370D01*
X2046Y1375D01*
X2036Y1379D01*
X2027Y1383D01*
X2018Y1387D01*
X2009Y1391D01*
X1999Y1395D01*
X1990Y1400D01*
X1981Y1404D01*
X1972Y1408D01*
X1964Y1415D01*
X1958Y1423D01*
X1953Y1432D01*
X1951Y1441D01*
X1950Y1452D01*
X1950Y1462D01*
X1950Y1472D01*
X1950Y1482D01*
X1949Y1492D01*
X1949Y1502D01*
X1949Y1512D01*
X1949Y1522D01*
X1949Y1532D01*
X1949Y1542D01*
X1948Y1553D01*
X1948Y1563D01*
X1948Y1573D01*
X1948Y1583D01*
X1948Y1593D01*
X1948Y1603D01*
X1947Y1613D01*
X1946Y1623D01*
X1941Y1632D01*
X1935Y1640D01*
X1926Y1645D01*
X1916Y1647D01*
X1906Y1648D01*
X1896Y1648D01*
X1886Y1649D01*
X1876Y1649D01*
X1866Y1650D01*
X1862Y1650D01*
X2301Y2350D02*
X2302Y2359D01*
X2304Y2369D01*
X2306Y2379D01*
X2307Y2389D01*
X2309Y2399D01*
X2311Y2409D01*
X2313Y2419D01*
X2314Y2429D01*
X2316Y2439D01*
X2318Y2449D01*
X2320Y2459D01*
X2321Y2469D01*
X2323Y2479D01*
X2325Y2488D01*
X2327Y2498D01*
X2329Y2508D01*
X2332Y2518D01*
X2336Y2527D01*
X2340Y2536D01*
X2344Y2546D01*
X2347Y2555D01*
X2351Y2564D01*
X2355Y2574D01*
X2361Y2582D01*
X2368Y2589D01*
X2376Y2595D01*
X2385Y2599D01*
X2395Y2601D01*
X2405Y2603D01*
X2415Y2604D01*
X2425Y2606D01*
X2435Y2608D01*
X2445Y2610D01*
X2455Y2611D01*
X2462Y2612D01*
X2000Y2200D02*
X2007Y2206D01*
X2014Y2213D01*
X2022Y2220D01*
X2029Y2227D01*
X2037Y2234D01*
X2044Y2240D01*
X2051Y2247D01*
X2059Y2254D01*
X2066Y2261D01*
X2074Y2268D01*
X2081Y2275D01*
X2089Y2281D01*
X2096Y2288D01*
X2104Y2295D01*
X2111Y2302D01*
X2118Y2309D01*
X2126Y2315D01*
X2133Y2322D01*
X2141Y2329D01*
X2148Y2336D01*
X2156Y2343D01*
X2163Y2350D01*
X2171Y2356D01*
X2178Y2363D01*
X2185Y2370D01*
X2193Y2377D01*
X2200Y2384D01*
X2208Y2391D01*
X2215Y2397D01*
X2223Y2404D01*
X2230Y2411D01*
X2237Y2418D01*
X2243Y2426D01*
X2248Y2435D01*
X2253Y2444D01*
X2258Y2453D01*
X2263Y2462D01*
X2268Y2470D01*
X2273Y2479D01*
X2278Y2488D01*
X2283Y2497D01*
X2288Y2506D01*
X2293Y2514D01*
X2298Y2523D01*
X2303Y2532D01*
X2308Y2541D01*
X2313Y2549D01*
X2318Y2558D01*
X2323Y2567D01*
X2328Y2576D01*
X2333Y2585D01*
X2338Y2593D01*
X2344Y2601D01*
X2351Y2608D01*
X2360Y2614D01*
X2369Y2619D01*
X2378Y2623D01*
X2388Y2626D01*
X2397Y2629D01*
X2407Y2632D01*
X2416Y2635D01*
X2426Y2638D01*
X2436Y2641D01*
X2445Y2644D01*
X2455Y2647D01*
X2465Y2647D01*
X2475Y2645D01*
X2484Y2640D01*
X2493Y2636D01*
X2502Y2631D01*
X2511Y2626D01*
X2512Y2625D01*
X2562Y2425D02*
X2561Y2434D01*
X2555Y2443D01*
X2547Y2448D01*
X2537Y2452D01*
X2528Y2455D01*
X2519Y2459D01*
X2509Y2463D01*
X2500Y2466D01*
X2490Y2470D01*
X2481Y2474D01*
X2471Y2477D01*
X2462Y2481D01*
X2452Y2484D01*
X2443Y2488D01*
X2434Y2492D01*
X2424Y2495D01*
X2415Y2499D01*
X2405Y2501D01*
X2395Y2501D01*
X2385Y2501D01*
X2375Y2500D01*
X2365Y2500D01*
X2362Y2500D01*
D12*
X2638Y2475D03*
X2688Y2525D03*
X2450Y2350D03*
X2650Y2725D03*
X2650Y2675D03*
X2750Y2525D03*
X2462Y2612D03*
X1600Y1350D03*
X1712Y1488D03*
X1762Y1550D03*
X1638Y1550D03*
X2362Y2500D03*
X1838Y1550D03*
X1888Y1550D03*
X1912Y1612D03*
X2037Y1500D03*
D13*
X1700Y2550D03*
X1700Y2450D03*
X1800Y2450D03*
X1800Y2550D03*
X2000Y2200D03*
X2100Y2200D03*
X2200Y2200D03*
X2300Y2200D03*
X2400Y2200D03*
X2500Y2200D03*
X2600Y2200D03*
X2700Y2200D03*
X2000Y2800D03*
X2100Y2800D03*
X2200Y2800D03*
X2400Y2800D03*
X2500Y2800D03*
X2600Y2800D03*
X2700Y2800D03*
X2100Y2451D03*
X1900Y2447D03*
X1900Y2547D03*
X2100Y2551D03*
X2800Y2800D03*
X2800Y2200D03*
X1900Y2650D03*
X2300Y2650D03*
X1899Y2350D03*
X2301Y2350D03*
X2200Y2451D03*
X2200Y2551D03*
X2400Y2551D03*
X2400Y2451D03*
X1750Y2800D03*
X1850Y2800D03*
X2700Y1450D03*
X2700Y1550D03*
X2600Y1550D03*
X2600Y1450D03*
X2650Y1800D03*
X2550Y1800D03*
X2400Y1800D03*
X2300Y1800D03*
X2200Y1800D03*
X2100Y1800D03*
X2000Y1800D03*
X1800Y1800D03*
X1700Y1800D03*
X1600Y1800D03*
X1600Y1200D03*
X1700Y1200D03*
X1800Y1200D03*
X1900Y1200D03*
X2000Y1200D03*
X2100Y1200D03*
X2200Y1200D03*
X2300Y1200D03*
X2400Y1200D03*
X2300Y1450D03*
X2500Y1450D03*
X2500Y1550D03*
X2300Y1550D03*
X2000Y1450D03*
X2200Y1450D03*
X2200Y1550D03*
X2000Y1550D03*
X2100Y1350D03*
X2500Y1350D03*
X2500Y1650D03*
X2100Y1650D03*
D14*
X1600Y2250D03*
X1600Y2750D03*
X2800Y1750D03*
X2800Y1250D03*
M02*
