G04 Board Outline*
%FSLAX23Y23*%
%MOIN*%
G01*
%ADD10C,0.010*%
%ADD11C,0.015*%
%ADD12C,0.035*%
%ADD13C,0.065*%
%ADD14C,0.150*%
D10*
X2255Y1974D02*
X2255Y1982D01*
X2255Y1991D01*
X2255Y1999D01*
X2255Y2008D01*
X2255Y2016D01*
X2255Y2025D01*
X2255Y2033D01*
X2256Y2041D01*
X2258Y2050D01*
X2261Y2057D01*
X2265Y2065D01*
X2270Y2072D01*
X2276Y2078D01*
X2283Y2083D01*
X2290Y2087D01*
X2298Y2090D01*
X2306Y2092D01*
X2315Y2093D01*
X2323Y2093D01*
X2332Y2093D01*
X2340Y2093D01*
X2348Y2093D01*
X2357Y2093D01*
X2365Y2093D01*
X2374Y2093D01*
X2382Y2093D01*
X2391Y2092D01*
X2399Y2090D01*
X2407Y2088D01*
X2415Y2085D01*
X2423Y2083D01*
X2432Y2081D01*
X2440Y2079D01*
X2448Y2077D01*
X2456Y2075D01*
X2464Y2073D01*
X2473Y2071D01*
X2481Y2069D01*
X2489Y2068D01*
X2498Y2068D01*
X2506Y2068D01*
X2515Y2068D01*
X2523Y2068D01*
X2532Y2068D01*
X2540Y2068D01*
X2549Y2068D01*
X2557Y2068D01*
X2566Y2068D01*
X2574Y2068D01*
X2582Y2068D01*
X2591Y2068D01*
X2599Y2068D01*
X2608Y2068D01*
X2616Y2069D01*
X2625Y2070D01*
X2633Y2072D01*
X2641Y2074D01*
X2649Y2076D01*
X2657Y2078D01*
X2666Y2080D01*
X2674Y2082D01*
X2682Y2085D01*
X2690Y2087D01*
X2698Y2089D01*
X2707Y2091D01*
X2715Y2092D01*
X2723Y2093D01*
X2732Y2093D01*
X2740Y2093D01*
X2749Y2093D01*
X2757Y2093D01*
X2766Y2093D01*
X2774Y2093D01*
X2783Y2093D01*
X2791Y2093D01*
X2799Y2093D01*
X2808Y2093D01*
X2816Y2094D01*
X2825Y2096D01*
X2833Y2098D01*
X2841Y2101D01*
X2848Y2104D01*
X2856Y2108D01*
X2863Y2113D01*
X2869Y2119D01*
X2876Y2124D01*
X2882Y2130D01*
X2887Y2137D01*
X2892Y2144D01*
X2895Y2151D01*
X2899Y2159D01*
X2902Y2167D01*
X2904Y2175D01*
X2906Y2183D01*
X2907Y2192D01*
X2907Y2200D01*
X2907Y2209D01*
X2907Y2217D01*
X2907Y2226D01*
X2907Y2234D01*
X2907Y2243D01*
X2907Y2251D01*
X2907Y2260D01*
X2907Y2268D01*
X2907Y2276D01*
X2907Y2285D01*
X2907Y2293D01*
X2907Y2302D01*
X2907Y2310D01*
X2907Y2319D01*
X2907Y2327D01*
X2907Y2336D01*
X2907Y2344D01*
X2907Y2353D01*
X2907Y2361D01*
X2907Y2369D01*
X2907Y2378D01*
X2907Y2386D01*
X2907Y2395D01*
X2907Y2403D01*
X2907Y2412D01*
X2907Y2420D01*
X2907Y2429D01*
X2907Y2437D01*
X2907Y2446D01*
X2907Y2454D01*
X2907Y2462D01*
X2907Y2471D01*
X2907Y2479D01*
X2907Y2488D01*
X2907Y2496D01*
X2907Y2505D01*
X2908Y2513D01*
X2909Y2521D01*
X2911Y2530D01*
X2914Y2538D01*
X2916Y2546D01*
X2917Y2554D01*
X2919Y2563D01*
X2919Y2571D01*
X2920Y2579D01*
X2920Y2588D01*
X2920Y2596D01*
X2920Y2605D01*
X2920Y2613D01*
X2920Y2622D01*
X2920Y2630D01*
X2919Y2639D01*
X2918Y2647D01*
X2918Y2656D01*
X2917Y2664D01*
X2917Y2672D01*
X2916Y2681D01*
X2915Y2689D01*
X2915Y2698D01*
X2914Y2706D01*
X2914Y2715D01*
X2913Y2723D01*
X2913Y2731D01*
X2912Y2740D01*
X2911Y2748D01*
X2911Y2757D01*
X2910Y2765D01*
X2910Y2774D01*
X2909Y2782D01*
X2908Y2791D01*
X2908Y2799D01*
X2907Y2807D01*
X2906Y2816D01*
X2905Y2824D01*
X2902Y2832D01*
X2900Y2840D01*
X2896Y2848D01*
X2892Y2855D01*
X2887Y2862D01*
X2882Y2869D01*
X2876Y2875D01*
X2870Y2881D01*
X2864Y2886D01*
X2857Y2891D01*
X2849Y2895D01*
X2842Y2899D01*
X2834Y2902D01*
X2825Y2904D01*
X2817Y2906D01*
X2809Y2907D01*
X2800Y2907D01*
X2792Y2907D01*
X2783Y2907D01*
X2775Y2907D01*
X2766Y2907D01*
X2758Y2907D01*
X2750Y2907D01*
X2741Y2907D01*
X2733Y2907D01*
X2724Y2907D01*
X2716Y2907D01*
X2707Y2907D01*
X2699Y2907D01*
X2690Y2907D01*
X2682Y2907D01*
X2673Y2907D01*
X2665Y2907D01*
X2657Y2907D01*
X2648Y2907D01*
X2640Y2907D01*
X2631Y2907D01*
X2623Y2907D01*
X2614Y2908D01*
X2606Y2909D01*
X2598Y2911D01*
X2590Y2913D01*
X2581Y2916D01*
X2573Y2918D01*
X2565Y2920D01*
X2557Y2922D01*
X2549Y2924D01*
X2540Y2926D01*
X2532Y2928D01*
X2524Y2930D01*
X2516Y2931D01*
X2507Y2932D01*
X2499Y2932D01*
X2490Y2932D01*
X2482Y2931D01*
X2474Y2929D01*
X2465Y2927D01*
X2457Y2925D01*
X2449Y2922D01*
X2442Y2918D01*
X2434Y2915D01*
X2426Y2911D01*
X2418Y2909D01*
X2410Y2908D01*
X2401Y2907D01*
X2393Y2907D01*
X2384Y2907D01*
X2376Y2907D01*
X2368Y2907D01*
X2359Y2907D01*
X2351Y2907D01*
X2342Y2907D01*
X2334Y2907D01*
X2325Y2907D01*
X2317Y2907D01*
X2308Y2907D01*
X2300Y2907D01*
X2291Y2907D01*
X2283Y2907D01*
X2275Y2907D01*
X2266Y2907D01*
X2258Y2907D01*
X2249Y2907D01*
X2241Y2907D01*
X2232Y2907D01*
X2224Y2907D01*
X2215Y2907D01*
X2207Y2907D01*
X2198Y2907D01*
X2190Y2907D01*
X2182Y2907D01*
X2173Y2907D01*
X2165Y2907D01*
X2156Y2907D01*
X2148Y2907D01*
X2139Y2907D01*
X2131Y2907D01*
X2122Y2907D01*
X2114Y2907D01*
X2105Y2907D01*
X2097Y2907D01*
X2089Y2907D01*
X2080Y2907D01*
X2072Y2907D01*
X2063Y2907D01*
X2055Y2907D01*
X2046Y2907D01*
X2038Y2907D01*
X2029Y2907D01*
X2021Y2907D01*
X2012Y2907D01*
X2004Y2907D01*
X1996Y2907D01*
X1987Y2907D01*
X1979Y2907D01*
X1970Y2907D01*
X1962Y2907D01*
X1953Y2907D01*
X1945Y2907D01*
X1936Y2907D01*
X1928Y2907D01*
X1919Y2907D01*
X1911Y2907D01*
X1903Y2907D01*
X1894Y2907D01*
X1886Y2907D01*
X1877Y2907D01*
X1869Y2907D01*
X1860Y2907D01*
X1852Y2907D01*
X1843Y2907D01*
X1835Y2907D01*
X1826Y2907D01*
X1818Y2907D01*
X1810Y2907D01*
X1801Y2907D01*
X1793Y2907D01*
X1784Y2907D01*
X1776Y2907D01*
X1767Y2907D01*
X1759Y2907D01*
X1750Y2907D01*
X1742Y2907D01*
X1733Y2906D01*
X1725Y2904D01*
X1717Y2902D01*
X1709Y2899D01*
X1701Y2896D01*
X1694Y2891D01*
X1687Y2887D01*
X1680Y2882D01*
X1673Y2877D01*
X1665Y2874D01*
X1657Y2871D01*
X1649Y2870D01*
X1640Y2870D01*
X1632Y2871D01*
X1624Y2873D01*
X1615Y2874D01*
X1607Y2875D01*
X1599Y2875D01*
X1590Y2875D01*
X1582Y2874D01*
X1573Y2872D01*
X1565Y2870D01*
X1557Y2867D01*
X1549Y2864D01*
X1542Y2860D01*
X1534Y2856D01*
X1527Y2852D01*
X1521Y2846D01*
X1514Y2841D01*
X1508Y2835D01*
X1503Y2828D01*
X1498Y2822D01*
X1493Y2815D01*
X1489Y2807D01*
X1485Y2800D01*
X1482Y2792D01*
X1480Y2784D01*
X1478Y2775D01*
X1476Y2767D01*
X1475Y2759D01*
X1475Y2750D01*
X1475Y2742D01*
X1476Y2733D01*
X1478Y2725D01*
X1480Y2717D01*
X1482Y2709D01*
X1485Y2701D01*
X1489Y2693D01*
X1493Y2686D01*
X1497Y2679D01*
X1503Y2672D01*
X1508Y2665D01*
X1514Y2659D01*
X1520Y2654D01*
X1526Y2648D01*
X1532Y2641D01*
X1536Y2634D01*
X1539Y2626D01*
X1541Y2618D01*
X1543Y2610D01*
X1543Y2601D01*
X1543Y2593D01*
X1543Y2584D01*
X1543Y2576D01*
X1543Y2567D01*
X1543Y2559D01*
X1543Y2551D01*
X1543Y2542D01*
X1543Y2534D01*
X1543Y2525D01*
X1543Y2517D01*
X1543Y2508D01*
X1543Y2500D01*
X1543Y2491D01*
X1543Y2483D01*
X1543Y2474D01*
X1543Y2466D01*
X1543Y2458D01*
X1543Y2449D01*
X1543Y2441D01*
X1543Y2432D01*
X1543Y2424D01*
X1543Y2415D01*
X1543Y2407D01*
X1543Y2398D01*
X1542Y2390D01*
X1541Y2382D01*
X1539Y2373D01*
X1536Y2366D01*
X1532Y2358D01*
X1526Y2352D01*
X1520Y2346D01*
X1514Y2340D01*
X1508Y2334D01*
X1502Y2328D01*
X1497Y2321D01*
X1493Y2314D01*
X1489Y2307D01*
X1485Y2299D01*
X1482Y2291D01*
X1479Y2283D01*
X1478Y2275D01*
X1476Y2266D01*
X1475Y2258D01*
X1475Y2249D01*
X1475Y2241D01*
X1476Y2233D01*
X1478Y2224D01*
X1480Y2216D01*
X1482Y2208D01*
X1485Y2200D01*
X1489Y2193D01*
X1493Y2185D01*
X1498Y2178D01*
X1503Y2171D01*
X1509Y2165D01*
X1514Y2159D01*
X1521Y2153D01*
X1528Y2148D01*
X1535Y2144D01*
X1542Y2139D01*
X1550Y2136D01*
X1557Y2133D01*
X1566Y2130D01*
X1574Y2128D01*
X1582Y2126D01*
X1590Y2125D01*
X1599Y2125D01*
X1607Y2125D01*
X1616Y2126D01*
X1624Y2127D01*
X1632Y2129D01*
X1640Y2132D01*
X1648Y2135D01*
X1656Y2138D01*
X1664Y2142D01*
X1671Y2147D01*
X1678Y2152D01*
X1685Y2156D01*
X1693Y2159D01*
X1701Y2160D01*
X1710Y2161D01*
X1718Y2160D01*
X1726Y2159D01*
X1735Y2157D01*
X1743Y2154D01*
X1751Y2152D01*
X1759Y2150D01*
X1767Y2148D01*
X1776Y2146D01*
X1784Y2144D01*
X1792Y2142D01*
X1800Y2140D01*
X1808Y2138D01*
X1817Y2136D01*
X1825Y2134D01*
X1833Y2132D01*
X1841Y2130D01*
X1849Y2127D01*
X1858Y2125D01*
X1866Y2123D01*
X1874Y2121D01*
X1882Y2119D01*
X1890Y2117D01*
X1898Y2115D01*
X1907Y2113D01*
X1915Y2111D01*
X1923Y2109D01*
X1931Y2107D01*
X1939Y2105D01*
X1948Y2103D01*
X1956Y2100D01*
X1964Y2098D01*
X1972Y2096D01*
X1981Y2094D01*
X1989Y2093D01*
X1997Y2092D01*
X2005Y2090D01*
X2013Y2086D01*
X2020Y2082D01*
X2027Y2076D01*
X2032Y2070D01*
X2037Y2063D01*
X2041Y2055D01*
X2043Y2047D01*
X2045Y2039D01*
X2045Y2030D01*
X2045Y2022D01*
X2045Y2013D01*
X2045Y2005D01*
X2045Y1997D01*
X2045Y1988D01*
X2045Y1980D01*
X2045Y1971D01*
X2045Y1963D01*
X2043Y1954D01*
X2041Y1946D01*
X2037Y1939D01*
X2033Y1932D01*
X2027Y1925D01*
X2021Y1920D01*
X2014Y1915D01*
X2006Y1912D01*
X1998Y1909D01*
X1990Y1908D01*
X1981Y1908D01*
X1973Y1908D01*
X1964Y1908D01*
X1956Y1907D01*
X1947Y1907D01*
X1939Y1907D01*
X1930Y1908D01*
X1922Y1908D01*
X1913Y1908D01*
X1905Y1907D01*
X1897Y1907D01*
X1888Y1907D01*
X1880Y1908D01*
X1871Y1908D01*
X1863Y1908D01*
X1854Y1907D01*
X1846Y1907D01*
X1837Y1907D01*
X1829Y1907D01*
X1820Y1908D01*
X1812Y1908D01*
X1804Y1907D01*
X1795Y1907D01*
X1787Y1907D01*
X1778Y1907D01*
X1770Y1908D01*
X1761Y1908D01*
X1753Y1907D01*
X1744Y1907D01*
X1736Y1907D01*
X1727Y1907D01*
X1719Y1907D01*
X1710Y1908D01*
X1702Y1907D01*
X1694Y1907D01*
X1685Y1907D01*
X1677Y1907D01*
X1668Y1907D01*
X1660Y1907D01*
X1651Y1907D01*
X1643Y1907D01*
X1634Y1907D01*
X1626Y1907D01*
X1617Y1907D01*
X1609Y1907D01*
X1601Y1907D01*
X1592Y1907D01*
X1584Y1906D01*
X1575Y1905D01*
X1567Y1902D01*
X1559Y1899D01*
X1552Y1896D01*
X1544Y1892D01*
X1537Y1887D01*
X1531Y1882D01*
X1524Y1876D01*
X1518Y1870D01*
X1513Y1863D01*
X1508Y1856D01*
X1505Y1849D01*
X1501Y1841D01*
X1498Y1833D01*
X1496Y1825D01*
X1494Y1817D01*
X1493Y1808D01*
X1493Y1800D01*
X1493Y1791D01*
X1493Y1783D01*
X1493Y1774D01*
X1493Y1766D01*
X1493Y1757D01*
X1493Y1749D01*
X1493Y1741D01*
X1493Y1732D01*
X1493Y1724D01*
X1493Y1715D01*
X1493Y1707D01*
X1493Y1698D01*
X1493Y1690D01*
X1493Y1681D01*
X1493Y1673D01*
X1493Y1664D01*
X1493Y1656D01*
X1493Y1648D01*
X1493Y1639D01*
X1493Y1631D01*
X1493Y1622D01*
X1493Y1614D01*
X1493Y1605D01*
X1493Y1597D01*
X1493Y1588D01*
X1493Y1580D01*
X1493Y1571D01*
X1493Y1563D01*
X1493Y1555D01*
X1493Y1546D01*
X1493Y1538D01*
X1493Y1529D01*
X1493Y1521D01*
X1493Y1512D01*
X1493Y1504D01*
X1493Y1495D01*
X1493Y1487D01*
X1493Y1478D01*
X1493Y1470D01*
X1493Y1462D01*
X1493Y1453D01*
X1493Y1445D01*
X1493Y1436D01*
X1493Y1428D01*
X1493Y1419D01*
X1493Y1411D01*
X1493Y1402D01*
X1493Y1394D01*
X1493Y1385D01*
X1493Y1377D01*
X1493Y1369D01*
X1493Y1360D01*
X1493Y1352D01*
X1493Y1343D01*
X1493Y1335D01*
X1493Y1326D01*
X1493Y1318D01*
X1493Y1309D01*
X1493Y1301D01*
X1493Y1292D01*
X1493Y1284D01*
X1493Y1276D01*
X1493Y1267D01*
X1493Y1259D01*
X1493Y1250D01*
X1493Y1242D01*
X1493Y1233D01*
X1493Y1225D01*
X1493Y1216D01*
X1493Y1208D01*
X1493Y1199D01*
X1493Y1191D01*
X1494Y1183D01*
X1496Y1174D01*
X1498Y1166D01*
X1501Y1158D01*
X1505Y1151D01*
X1509Y1143D01*
X1514Y1136D01*
X1519Y1130D01*
X1525Y1123D01*
X1531Y1118D01*
X1538Y1113D01*
X1545Y1108D01*
X1552Y1104D01*
X1560Y1100D01*
X1568Y1098D01*
X1576Y1095D01*
X1585Y1094D01*
X1593Y1093D01*
X1601Y1093D01*
X1610Y1093D01*
X1618Y1093D01*
X1627Y1093D01*
X1635Y1093D01*
X1644Y1093D01*
X1652Y1093D01*
X1661Y1093D01*
X1669Y1093D01*
X1678Y1093D01*
X1686Y1093D01*
X1694Y1093D01*
X1703Y1093D01*
X1711Y1093D01*
X1720Y1093D01*
X1728Y1093D01*
X1737Y1093D01*
X1745Y1093D01*
X1754Y1093D01*
X1762Y1093D01*
X1771Y1093D01*
X1779Y1093D01*
X1787Y1093D01*
X1796Y1093D01*
X1804Y1093D01*
X1813Y1093D01*
X1821Y1093D01*
X1830Y1093D01*
X1838Y1093D01*
X1847Y1093D01*
X1855Y1093D01*
X1864Y1093D01*
X1872Y1093D01*
X1880Y1093D01*
X1889Y1092D01*
X1897Y1090D01*
X1905Y1088D01*
X1913Y1086D01*
X1922Y1084D01*
X1930Y1081D01*
X1938Y1079D01*
X1946Y1077D01*
X1954Y1075D01*
X1963Y1073D01*
X1971Y1071D01*
X1979Y1069D01*
X1988Y1068D01*
X1996Y1068D01*
X2004Y1068D01*
X2013Y1068D01*
X2021Y1068D01*
X2030Y1068D01*
X2038Y1068D01*
X2047Y1068D01*
X2055Y1068D01*
X2064Y1068D01*
X2072Y1068D01*
X2081Y1068D01*
X2089Y1068D01*
X2097Y1068D01*
X2106Y1068D01*
X2114Y1068D01*
X2123Y1068D01*
X2131Y1068D01*
X2140Y1068D01*
X2148Y1068D01*
X2157Y1068D01*
X2165Y1068D01*
X2174Y1068D01*
X2182Y1068D01*
X2191Y1068D01*
X2199Y1068D01*
X2207Y1068D01*
X2216Y1069D01*
X2224Y1070D01*
X2232Y1072D01*
X2241Y1074D01*
X2249Y1077D01*
X2256Y1080D01*
X2264Y1084D01*
X2272Y1088D01*
X2280Y1091D01*
X2288Y1092D01*
X2296Y1093D01*
X2305Y1093D01*
X2313Y1093D01*
X2322Y1093D01*
X2330Y1093D01*
X2339Y1093D01*
X2347Y1093D01*
X2355Y1093D01*
X2364Y1093D01*
X2372Y1093D01*
X2381Y1093D01*
X2389Y1093D01*
X2398Y1093D01*
X2406Y1093D01*
X2415Y1094D01*
X2423Y1095D01*
X2431Y1097D01*
X2439Y1099D01*
X2448Y1101D01*
X2456Y1103D01*
X2464Y1105D01*
X2472Y1107D01*
X2480Y1110D01*
X2489Y1112D01*
X2497Y1114D01*
X2505Y1116D01*
X2513Y1118D01*
X2521Y1120D01*
X2530Y1122D01*
X2538Y1124D01*
X2546Y1126D01*
X2554Y1128D01*
X2562Y1130D01*
X2571Y1132D01*
X2579Y1135D01*
X2587Y1137D01*
X2595Y1139D01*
X2603Y1141D01*
X2612Y1143D01*
X2620Y1145D01*
X2628Y1147D01*
X2636Y1149D01*
X2644Y1151D01*
X2652Y1153D01*
X2661Y1155D01*
X2669Y1157D01*
X2677Y1159D01*
X2685Y1161D01*
X2694Y1161D01*
X2702Y1160D01*
X2710Y1158D01*
X2718Y1154D01*
X2725Y1150D01*
X2732Y1145D01*
X2740Y1141D01*
X2747Y1137D01*
X2755Y1134D01*
X2763Y1131D01*
X2771Y1129D01*
X2779Y1127D01*
X2788Y1126D01*
X2796Y1125D01*
X2805Y1125D01*
X2813Y1126D01*
X2821Y1127D01*
X2830Y1129D01*
X2838Y1131D01*
X2846Y1134D01*
X2854Y1137D01*
X2861Y1141D01*
X2868Y1145D01*
X2875Y1150D01*
X2882Y1156D01*
X2888Y1161D01*
X2894Y1168D01*
X2899Y1174D01*
X2904Y1181D01*
X2909Y1188D01*
X2913Y1196D01*
X2916Y1203D01*
X2919Y1211D01*
X2921Y1220D01*
X2923Y1228D01*
X2924Y1236D01*
X2925Y1245D01*
X2925Y1253D01*
X2924Y1262D01*
X2923Y1270D01*
X2922Y1278D01*
X2920Y1286D01*
X2917Y1294D01*
X2914Y1302D01*
X2910Y1310D01*
X2906Y1317D01*
X2901Y1324D01*
X2896Y1331D01*
X2890Y1337D01*
X2884Y1343D01*
X2877Y1348D01*
X2872Y1355D01*
X2867Y1361D01*
X2863Y1369D01*
X2860Y1377D01*
X2858Y1385D01*
X2857Y1393D01*
X2857Y1402D01*
X2857Y1410D01*
X2858Y1419D01*
X2858Y1427D01*
X2857Y1436D01*
X2857Y1444D01*
X2857Y1453D01*
X2857Y1461D01*
X2858Y1470D01*
X2858Y1478D01*
X2857Y1486D01*
X2857Y1495D01*
X2857Y1503D01*
X2857Y1512D01*
X2858Y1520D01*
X2858Y1529D01*
X2857Y1537D01*
X2857Y1546D01*
X2857Y1554D01*
X2857Y1563D01*
X2858Y1571D01*
X2858Y1579D01*
X2857Y1588D01*
X2857Y1596D01*
X2857Y1605D01*
X2858Y1613D01*
X2859Y1622D01*
X2862Y1630D01*
X2866Y1637D01*
X2870Y1644D01*
X2876Y1651D01*
X2882Y1656D01*
X2889Y1662D01*
X2894Y1668D01*
X2900Y1675D01*
X2905Y1682D01*
X2909Y1689D01*
X2913Y1696D01*
X2916Y1704D01*
X2919Y1712D01*
X2921Y1720D01*
X2923Y1728D01*
X2924Y1737D01*
X2925Y1745D01*
X2925Y1754D01*
X2924Y1762D01*
X2923Y1771D01*
X2922Y1779D01*
X2919Y1787D01*
X2917Y1795D01*
X2913Y1803D01*
X2910Y1810D01*
X2905Y1818D01*
X2900Y1825D01*
X2895Y1831D01*
X2889Y1837D01*
X2883Y1843D01*
X2877Y1849D01*
X2870Y1854D01*
X2863Y1858D01*
X2855Y1862D01*
X2848Y1866D01*
X2840Y1869D01*
X2832Y1871D01*
X2823Y1873D01*
X2815Y1874D01*
X2806Y1875D01*
X2798Y1875D01*
X2790Y1875D01*
X2781Y1874D01*
X2773Y1872D01*
X2765Y1870D01*
X2756Y1870D01*
X2748Y1870D01*
X2739Y1872D01*
X2731Y1875D01*
X2724Y1879D01*
X2717Y1884D01*
X2710Y1889D01*
X2703Y1893D01*
X2696Y1897D01*
X2688Y1901D01*
X2680Y1903D01*
X2672Y1905D01*
X2663Y1906D01*
X2655Y1907D01*
X2646Y1907D01*
X2638Y1908D01*
X2629Y1908D01*
X2621Y1908D01*
X2612Y1907D01*
X2604Y1907D01*
X2596Y1907D01*
X2587Y1908D01*
X2579Y1908D01*
X2570Y1908D01*
X2562Y1907D01*
X2553Y1907D01*
X2545Y1907D01*
X2536Y1908D01*
X2528Y1908D01*
X2519Y1908D01*
X2511Y1907D01*
X2503Y1907D01*
X2494Y1907D01*
X2486Y1908D01*
X2477Y1908D01*
X2469Y1908D01*
X2460Y1908D01*
X2452Y1907D01*
X2443Y1907D01*
X2435Y1908D01*
X2426Y1908D01*
X2418Y1908D01*
X2410Y1908D01*
X2401Y1907D01*
X2393Y1907D01*
X2384Y1908D01*
X2376Y1908D01*
X2367Y1908D01*
X2359Y1908D01*
X2350Y1907D01*
X2342Y1907D01*
X2333Y1907D01*
X2325Y1908D01*
X2316Y1908D01*
X2308Y1908D01*
X2300Y1910D01*
X2292Y1913D01*
X2284Y1917D01*
X2277Y1921D01*
X2271Y1927D01*
X2266Y1934D01*
X2262Y1941D01*
X2258Y1949D01*
X2256Y1957D01*
X2255Y1965D01*
X2255Y1974D01*
M02*
