<?xml version="1.0" encoding="UTF-8" standalone="no"?>
<!-- Created with Inkscape (http://www.inkscape.org/) -->

<svg
   xmlns:dc="http://purl.org/dc/elements/1.1/"
   xmlns:cc="http://creativecommons.org/ns#"
   xmlns:rdf="http://www.w3.org/1999/02/22-rdf-syntax-ns#"
   xmlns:svg="http://www.w3.org/2000/svg"
   xmlns="http://www.w3.org/2000/svg"
   xmlns:sodipodi="http://sodipodi.sourceforge.net/DTD/sodipodi-0.dtd"
   xmlns:inkscape="http://www.inkscape.org/namespaces/inkscape"
   width="16"
   height="16"
   viewBox="0 0 16 16"
   id="svg8603"
   version="1.1"
   inkscape:version="0.91 r13725"
   sodipodi:docname="icon16_Easy80.svg">
  <defs
     id="defs8605" />
  <sodipodi:namedview
     id="base"
     pagecolor="#ffffff"
     bordercolor="#666666"
     borderopacity="1.0"
     inkscape:pageopacity="0.0"
     inkscape:pageshadow="2"
     inkscape:zoom="31.678384"
     inkscape:cx="8.6735764"
     inkscape:cy="8.0220247"
     inkscape:document-units="px"
     inkscape:current-layer="layer1"
     showgrid="true"
     units="px"
     inkscape:window-width="1366"
     inkscape:window-height="705"
     inkscape:window-x="-8"
     inkscape:window-y="-8"
     inkscape:window-maximized="1">
    <inkscape:grid
       type="xygrid"
       id="grid9165" />
  </sodipodi:namedview>
  <metadata
     id="metadata8608">
    <rdf:RDF>
      <cc:Work
         rdf:about="">
        <dc:format>image/svg+xml</dc:format>
        <dc:type
           rdf:resource="http://purl.org/dc/dcmitype/StillImage" />
        <dc:title></dc:title>
      </cc:Work>
    </rdf:RDF>
  </metadata>
  <g
     inkscape:label="Laag 1"
     inkscape:groupmode="layer"
     id="layer1"
     transform="translate(0,-1036.3622)">
    <g
       id="g9171"
       transform="matrix(0.99783095,0,0,0.99783095,-0.02952859,2.1812565)">
      <path
         d="m 4.799539,1037.515 -1.0860357,0 0,-0.6388 c 0,-0.1144 0.043695,-0.2288 0.1310843,-0.3161 0.087309,-0.087 0.2017176,-0.1311 0.3161257,-0.1311 l 0.191776,0 c 0.1142478,0 0.2288163,0.044 0.3159653,0.1311 0.08747,0.087 0.1310042,0.2018 0.1310042,0.3161 l 0,0.6388 z m 1.8952308,-0.6388 c 0,-0.1144 -0.043695,-0.2288 -0.1308438,-0.3161 -0.087309,-0.087 -0.2019581,-0.1311 -0.3163662,-0.1311 l -0.1916156,0 c -0.1144082,0 -0.2289767,0.044 -0.3162861,0.1311 -0.087149,0.087 -0.130924,0.2018 -0.130924,0.3161 l 0,0.6388 1.0860357,0 0,-0.6388 z m 1.8950705,0 c 0,-0.1144 -0.043615,-0.2288 -0.1307637,-0.3161 -0.08747,-0.087 -0.2017977,-0.1311 -0.316286,-0.1311 l -0.1916156,0 c -0.1145685,0 -0.2289767,0.044 -0.3162861,0.1311 -0.087309,0.087 -0.1309239,0.2018 -0.1309239,0.3161 l 0,0.6388 1.0857951,0 0,-0.6388 z m 1.8954717,0 c 0,-0.1144 -0.04386,-0.2288 -0.131005,-0.3161 -0.08747,-0.087 -0.202118,-0.1311 -0.316366,-0.1311 l -0.1917757,0 c -0.114328,0 -0.2288163,0.044 -0.3159654,0.1311 -0.08755,0.087 -0.1310843,0.2018 -0.1310843,0.3161 l 0,0.6388 1.0861964,0 0,-0.6388 z m 1.89491,0 c 0,-0.1144 -0.04354,-0.2288 -0.131004,-0.3161 -0.08723,-0.087 -0.201798,-0.1311 -0.315966,-0.1311 l -0.191856,0 c -0.114248,0 -0.228816,0.044 -0.315965,0.1311 -0.08747,0.087 -0.131085,0.2018 -0.131085,0.3161 l 0,0.6388 1.085876,0 0,-0.6388 z m -11.9034192,10.8176 c -0.11440815,0 -0.22881631,0.044 -0.31612568,0.131 -0.0875499,0.087 -0.13108433,0.2018 -0.13108433,0.3163 l 0,0.1916 c 0,0.1145 0.0436146,0.2288 0.13108433,0.3162 0.0873094,0.087 0.2017977,0.1311 0.31612568,0.1311 l 0.6388256,0 0,-1.0862 -0.6388256,0 z m 0,-1.8953 c -0.11440815,0 -0.22881631,0.044 -0.31612568,0.1311 -0.0875499,0.087 -0.13108433,0.2017 -0.13108433,0.3163 l 0,0.1914 c 0,0.1147 0.0436146,0.2289 0.13108433,0.3164 0.0873094,0.087 0.2017977,0.1307 0.31612568,0.1307 l 0.6388256,0 0,-1.0859 -0.6388256,0 z m 0,-1.8951 c -0.11440815,0 -0.22881631,0.043 -0.31612568,0.1311 -0.0875499,0.087 -0.13108433,0.2015 -0.13108433,0.3161 l 0,0.1916 c 0,0.1145 0.0436146,0.2288 0.13108433,0.3162 0.0873094,0.087 0.2017977,0.1311 0.31612568,0.1311 l 0.6388256,0 0,-1.0861 -0.6388256,0 z m 0,-1.8953 c -0.11440815,0 -0.22881631,0.044 -0.31612568,0.1311 -0.0875499,0.087 -0.13108433,0.2017 -0.13108433,0.316 l 0,0.1918 c 0,0.1144 0.0436146,0.2289 0.13108433,0.3163 0.0873094,0.087 0.2017977,0.1309 0.31612568,0.1309 l 0.6388256,0 0,-1.0861 -0.6388256,0 z m 0,-1.895 c -0.11440815,0 -0.22881631,0.043 -0.31612568,0.1309 -0.0875499,0.087 -0.13108433,0.2017 -0.13108433,0.3161 l 0,0.1916 c 0,0.1147 0.0436146,0.2293 0.13108433,0.3162 0.0873094,0.088 0.2017977,0.131 0.31612568,0.131 l 0.6388256,0 0,-1.0858 -0.6388256,0 z m 14.5016942,7.5807 0,1.0862 0.638826,0 c 0.114248,0 0.228816,-0.044 0.316286,-0.1311 0.08715,-0.087 0.130764,-0.2018 0.130764,-0.3162 l 0,-0.1916 c 0,-0.1145 -0.04361,-0.2291 -0.130764,-0.3163 -0.08747,-0.087 -0.202118,-0.131 -0.316286,-0.131 l -0.638826,0 z m 0,-1.8953 0,1.0859 0.638826,0 c 0.114248,0 0.228816,-0.043 0.316286,-0.1307 0.08715,-0.088 0.130764,-0.2018 0.130764,-0.3164 l 0,-0.1914 c 0,-0.1147 -0.04361,-0.2291 -0.130764,-0.3163 -0.08747,-0.087 -0.202118,-0.1311 -0.316286,-0.1311 l -0.638826,0 z m 0,-1.8951 0,1.0861 0.638826,0 c 0.114248,0 0.228816,-0.044 0.316286,-0.1311 0.08715,-0.088 0.130764,-0.2018 0.130764,-0.3162 l 0,-0.1916 c 0,-0.1146 -0.04361,-0.229 -0.130764,-0.3161 -0.08747,-0.088 -0.202118,-0.1311 -0.316286,-0.1311 l -0.638826,0 z m 0,-1.8953 0,1.0861 0.638826,0 c 0.114248,0 0.228816,-0.044 0.316286,-0.1309 0.08715,-0.087 0.130764,-0.2019 0.130764,-0.3163 l 0,-0.1918 c 0,-0.1143 -0.04361,-0.2287 -0.130764,-0.316 -0.08747,-0.087 -0.202118,-0.1311 -0.316286,-0.1311 l -0.638826,0 z m 0,-1.895 0,1.0858 0.638826,0 c 0.114248,0 0.228816,-0.043 0.316286,-0.131 0.08715,-0.087 0.130764,-0.2015 0.130764,-0.3162 l 0,-0.1916 c 0,-0.1144 -0.04361,-0.2288 -0.130764,-0.3161 -0.08747,-0.087 -0.202118,-0.1309 -0.316286,-0.1309 l -0.638826,0 z m -10.178958,11.2648 -1.0860357,0 0,0.6388 c 0,0.1143 0.043695,0.2288 0.1310843,0.316 0.087309,0.088 0.2017176,0.1311 0.3161257,0.1311 l 0.191776,0 c 0.1142478,0 0.2288163,-0.044 0.3159653,-0.1311 0.08747,-0.087 0.1310042,-0.2018 0.1310042,-0.316 l 0,-0.6388 z m 1.8952308,0 -1.0860357,0 0,0.6388 c 0,0.1143 0.043775,0.2288 0.130924,0.316 0.087309,0.088 0.2019581,0.1311 0.3162861,0.1311 l 0.1916156,0 c 0.1144081,0 0.2288163,-0.044 0.3163662,-0.1311 0.087149,-0.087 0.1308438,-0.2018 0.1308438,-0.316 l 0,-0.6388 z m 1.8950705,0 -1.0858753,0 0,0.6388 c 0,0.1143 0.043534,0.2288 0.1309239,0.316 0.087309,0.088 0.2018779,0.1311 0.3162861,0.1311 l 0.1916156,0 c 0.1144883,0 0.2288163,-0.044 0.3162059,-0.1311 0.087149,-0.087 0.1307636,-0.2018 0.1307636,-0.316 l 0,-0.6388 z m 1.8954717,0 -1.0861964,0 0,0.6388 c 0,0.1143 0.043534,0.2288 0.1310843,0.316 0.087149,0.088 0.2017176,0.1311 0.3159654,0.1311 l 0.1917757,0 c 0.114248,0 0.228817,-0.044 0.316366,-0.1311 0.08715,-0.087 0.131005,-0.2018 0.131005,-0.316 l 0,-0.6388 z m 1.89491,0 -1.085876,0 0,0.6388 c 0,0.1143 0.04361,0.2288 0.131085,0.316 0.08715,0.088 0.201797,0.1311 0.315965,0.1311 l 0.191856,0 c 0.114248,0 0.228817,-0.044 0.315966,-0.1311 0.08747,-0.087 0.131004,-0.2018 0.131004,-0.316 l 0,-0.6388 z"
         id="path5"
         inkscape:connector-curvature="0"
         style="fill:#309aab;fill-opacity:1" />
      <path
         inkscape:connector-curvature="0"
         id="path7"
         d="m 3.59326,1038.0582 c -0.070312,0 -0.1684979,0.04 -0.218286,0.09 l -1.6260269,1.6261 c -0.049788,0.05 -0.090352,0.1478 -0.090352,0.2182 l 0,8.9074 c 0,0.07 0.040564,0.1684 0.090352,0.2178 l 1.6261836,1.6267 c 0.049788,0.05 0.1477366,0.09 0.2181293,0.09 l 8.907602,0 c 0.07031,0 0.168429,-0.04 0.217816,-0.09 l 1.626184,-1.6267 c 0.04971,-0.049 0.09067,-0.1475 0.09067,-0.2178 l 0,-8.9074 c -8e-5,-0.07 -0.04096,-0.1685 -0.09067,-0.2182 l -1.62634,-1.6261 c -0.04939,-0.05 -0.147504,-0.09 -0.217817,-0.09 l -8.907445,0 z m 0.1367028,0.6385 8.6337272,0 1.432795,1.4328 0,8.6338 -1.432639,1.4326 -8.6338832,0 -1.4326387,-1.4326 0,-8.6338 1.4326387,-1.4328 z m 0.1854021,0.4474 -1.1708208,1.1707 0,8.2631 1.1708208,1.1706 8.2630791,0 1.170664,-1.1706 0,-8.2631 -1.170664,-1.1707 -8.2630791,0 z"
         style="fill:#309aab;fill-opacity:1" />
      <text
         sodipodi:linespacing="125%"
         id="text4159"
         y="1046.4728"
         x="8.0580225"
         style="font-style:normal;font-weight:normal;font-size:3.20695591px;line-height:125%;font-family:sans-serif;letter-spacing:0px;word-spacing:0px;fill:#fffffa;fill-opacity:1;stroke:none;stroke-width:1px;stroke-linecap:butt;stroke-linejoin:miter;stroke-opacity:1"
         xml:space="preserve"><tspan
           style="font-style:normal;font-variant:normal;font-weight:bold;font-stretch:normal;font-size:6.41391182px;line-height:125%;font-family:Calibri;-inkscape-font-specification:'Calibri, Bold';text-align:center;writing-mode:lr-tb;text-anchor:middle;fill:#fffffa;fill-opacity:1"
           id="tspan4163"
           y="1046.4728"
           x="8.0580225"
           sodipodi:role="line">Z80</tspan></text>
    </g>
  </g>
</svg>
